<svg width="800" height="400" viewBox="0 0 800 400" fill="none" xmlns="http://www.w3.org/2000/svg">
<rect width="800" height="400" fill="white"/>
<rect x="148" y="330.5" width="199" height="39" transform="rotate(-90 148 330.5)" fill="#A3D2FF" fill-opacity="0.29" stroke="#007BFF"/>
<path d="M165.938 255.722V258.21C165.616 258.256 165.33 258.348 165.08 258.489C164.826 258.629 164.61 258.809 164.432 259.028C164.254 259.248 164.117 259.502 164.023 259.79C163.928 260.074 163.881 260.383 163.881 260.716C163.881 261.318 164.03 261.843 164.33 262.29C164.625 262.737 165.057 263.083 165.625 263.33C166.189 263.576 166.875 263.699 167.682 263.699C168.511 263.699 169.208 263.576 169.773 263.33C170.337 263.08 170.763 262.731 171.051 262.284C171.339 261.837 171.483 261.32 171.483 260.733C171.483 260.403 171.439 260.098 171.352 259.818C171.265 259.534 171.138 259.282 170.972 259.062C170.801 258.843 170.595 258.661 170.352 258.517C170.11 258.369 169.833 258.267 169.523 258.21L169.534 255.722C170.068 255.786 170.583 255.947 171.08 256.205C171.572 256.458 172.013 256.801 172.403 257.233C172.79 257.661 173.097 258.172 173.324 258.767C173.547 259.358 173.659 260.027 173.659 260.773C173.659 261.811 173.424 262.739 172.955 263.557C172.485 264.371 171.805 265.015 170.915 265.489C170.025 265.958 168.947 266.193 167.682 266.193C166.413 266.193 165.333 265.955 164.443 265.477C163.553 265 162.875 264.352 162.409 263.534C161.939 262.716 161.705 261.795 161.705 260.773C161.705 260.098 161.799 259.473 161.989 258.898C162.178 258.318 162.455 257.805 162.818 257.358C163.178 256.911 163.619 256.547 164.142 256.267C164.665 255.983 165.263 255.801 165.938 255.722ZM173.67 250.06C173.67 250.942 173.483 251.705 173.108 252.349C172.729 252.99 172.203 253.484 171.528 253.832C170.85 254.181 170.064 254.355 169.17 254.355C168.269 254.355 167.481 254.181 166.807 253.832C166.129 253.484 165.602 252.99 165.227 252.349C164.848 251.705 164.659 250.942 164.659 250.06C164.659 249.177 164.848 248.416 165.227 247.776C165.602 247.132 166.129 246.635 166.807 246.287C167.481 245.938 168.269 245.764 169.17 245.764C170.064 245.764 170.85 245.938 171.528 246.287C172.203 246.635 172.729 247.132 173.108 247.776C173.483 248.416 173.67 249.177 173.67 250.06ZM171.795 250.048C171.795 249.647 171.682 249.312 171.455 249.043C171.223 248.774 170.909 248.571 170.511 248.435C170.114 248.295 169.661 248.224 169.153 248.224C168.646 248.224 168.193 248.295 167.795 248.435C167.398 248.571 167.083 248.774 166.852 249.043C166.621 249.312 166.506 249.647 166.506 250.048C166.506 250.454 166.621 250.795 166.852 251.071C167.083 251.344 167.398 251.55 167.795 251.69C168.193 251.827 168.646 251.895 169.153 251.895C169.661 251.895 170.114 251.827 170.511 251.69C170.909 251.55 171.223 251.344 171.455 251.071C171.682 250.795 171.795 250.454 171.795 250.048ZM168.455 241.77H173.5V244.19H164.773V241.884H166.312V241.781C165.805 241.588 165.403 241.264 165.108 240.81C164.809 240.355 164.659 239.804 164.659 239.156C164.659 238.55 164.792 238.022 165.057 237.571C165.322 237.12 165.701 236.77 166.193 236.52C166.682 236.27 167.265 236.145 167.943 236.145H173.5V238.565H168.375C167.841 238.562 167.424 238.698 167.125 238.974C166.822 239.251 166.67 239.632 166.67 240.116C166.67 240.442 166.741 240.73 166.881 240.98C167.021 241.226 167.225 241.42 167.494 241.56C167.759 241.696 168.08 241.766 168.455 241.77ZM164.773 226.413L173.5 229.464V232.192L164.773 235.243V232.686L171.017 230.874V230.783L164.773 228.976V226.413ZM161.864 216.432H173.5V218.892H164.199V218.96L165.869 221.625H163.688L161.864 218.744V216.432ZM171.886 206.524L165.108 213.314L163.602 211.825L170.398 205.03L171.886 206.524ZM171.886 211.825L170.398 213.314L163.602 206.524L165.108 205.03L171.886 211.825ZM161.864 197.729H173.5V200.189H164.199V200.257L165.869 202.922H163.688L161.864 200.041V197.729Z" fill="black"/>
<rect x="198" y="330.5" width="199" height="39" transform="rotate(-90 198 330.5)" stroke="#007BFF" stroke-dasharray="2 2"/>
<path d="M223.5 275.989H211.864V271.33C211.864 270.473 211.991 269.759 212.244 269.188C212.498 268.616 212.85 268.186 213.301 267.898C213.748 267.61 214.263 267.466 214.847 267.466C215.301 267.466 215.701 267.557 216.045 267.739C216.386 267.92 216.667 268.17 216.886 268.489C217.102 268.803 217.256 269.163 217.347 269.568H217.46C217.479 269.125 217.604 268.71 217.835 268.324C218.066 267.934 218.39 267.617 218.807 267.375C219.22 267.133 219.712 267.011 220.284 267.011C220.902 267.011 221.453 267.165 221.938 267.472C222.419 267.775 222.799 268.223 223.08 268.818C223.36 269.413 223.5 270.146 223.5 271.017V275.989ZM221.489 273.528V271.523C221.489 270.837 221.358 270.337 221.097 270.023C220.831 269.708 220.479 269.551 220.04 269.551C219.718 269.551 219.434 269.629 219.188 269.784C218.941 269.939 218.748 270.161 218.608 270.449C218.468 270.733 218.398 271.072 218.398 271.466V273.528H221.489ZM216.733 273.528V271.705C216.733 271.367 216.674 271.068 216.557 270.807C216.436 270.542 216.265 270.333 216.045 270.182C215.826 270.027 215.562 269.949 215.256 269.949C214.835 269.949 214.496 270.098 214.239 270.398C213.981 270.693 213.852 271.114 213.852 271.659V273.528H216.733ZM223.665 262.967C223.665 263.524 223.568 264.02 223.375 264.456C223.178 264.892 222.888 265.236 222.506 265.49C222.119 265.74 221.638 265.865 221.062 265.865C220.578 265.865 220.17 265.776 219.841 265.598C219.511 265.42 219.246 265.178 219.045 264.871C218.845 264.564 218.693 264.215 218.591 263.825C218.489 263.431 218.417 263.018 218.375 262.587C218.322 262.079 218.273 261.67 218.227 261.359C218.178 261.049 218.106 260.823 218.011 260.683C217.917 260.543 217.777 260.473 217.591 260.473H217.557C217.197 260.473 216.919 260.587 216.722 260.814C216.525 261.037 216.426 261.356 216.426 261.768C216.426 262.204 216.523 262.551 216.716 262.808C216.905 263.066 217.144 263.236 217.432 263.32L217.25 265.558C216.72 265.445 216.261 265.221 215.875 264.888C215.485 264.554 215.186 264.125 214.977 263.598C214.765 263.068 214.659 262.454 214.659 261.757C214.659 261.272 214.716 260.808 214.83 260.365C214.943 259.918 215.119 259.522 215.358 259.178C215.597 258.829 215.903 258.554 216.278 258.354C216.65 258.153 217.095 258.053 217.614 258.053H223.5V260.348H222.29V260.416C222.562 260.556 222.803 260.744 223.011 260.979C223.216 261.214 223.377 261.496 223.494 261.825C223.608 262.155 223.665 262.536 223.665 262.967ZM221.994 262.274C221.994 261.918 221.924 261.604 221.784 261.331C221.64 261.058 221.447 260.844 221.205 260.689C220.962 260.534 220.687 260.456 220.381 260.456H219.455C219.504 260.532 219.549 260.636 219.591 260.768C219.629 260.897 219.665 261.043 219.699 261.206C219.729 261.369 219.758 261.532 219.784 261.695C219.807 261.857 219.828 262.005 219.847 262.138C219.888 262.422 219.955 262.67 220.045 262.882C220.136 263.094 220.259 263.259 220.415 263.376C220.566 263.494 220.756 263.553 220.983 263.553C221.312 263.553 221.564 263.433 221.739 263.195C221.909 262.952 221.994 262.645 221.994 262.274ZM214.773 251.533H216.591V256.788H214.773V251.533ZM212.682 255.595V253.175H220.818C221.042 253.175 221.216 253.141 221.341 253.072C221.462 253.004 221.547 252.91 221.597 252.788C221.646 252.663 221.67 252.519 221.67 252.357C221.67 252.243 221.661 252.129 221.642 252.016C221.619 251.902 221.602 251.815 221.591 251.754L223.392 251.374C223.43 251.495 223.473 251.665 223.523 251.885C223.576 252.105 223.608 252.372 223.619 252.686C223.642 253.269 223.564 253.781 223.386 254.22C223.208 254.656 222.932 254.995 222.557 255.237C222.182 255.48 221.708 255.599 221.136 255.595H212.682ZM223.67 246.107C223.67 247 223.481 247.769 223.102 248.413C222.72 249.054 222.189 249.546 221.511 249.891C220.833 250.232 220.053 250.402 219.17 250.402C218.277 250.402 217.492 250.23 216.818 249.885C216.14 249.536 215.612 249.042 215.233 248.402C214.85 247.762 214.659 247 214.659 246.118C214.659 245.357 214.797 244.69 215.074 244.118C215.35 243.546 215.739 243.093 216.239 242.76C216.739 242.427 217.326 242.243 218 242.209V244.493C217.564 244.557 217.214 244.728 216.949 245.004C216.68 245.277 216.545 245.635 216.545 246.078C216.545 246.453 216.648 246.781 216.852 247.061C217.053 247.338 217.347 247.554 217.733 247.709C218.119 247.864 218.587 247.942 219.136 247.942C219.693 247.942 220.167 247.866 220.557 247.714C220.947 247.559 221.244 247.341 221.449 247.061C221.653 246.781 221.756 246.453 221.756 246.078C221.756 245.802 221.699 245.554 221.585 245.334C221.472 245.11 221.307 244.927 221.091 244.783C220.871 244.635 220.608 244.538 220.301 244.493V242.209C220.968 242.247 221.555 242.429 222.062 242.754C222.566 243.076 222.96 243.521 223.244 244.089C223.528 244.658 223.67 245.33 223.67 246.107ZM218.455 238.239H223.5V240.659H211.864V238.307H216.312V238.205C215.797 238.008 215.394 237.689 215.102 237.25C214.807 236.811 214.659 236.259 214.659 235.597C214.659 234.991 214.792 234.462 215.057 234.011C215.318 233.557 215.695 233.205 216.188 232.955C216.676 232.701 217.261 232.576 217.943 232.58H223.5V235H218.375C217.837 234.996 217.419 235.133 217.119 235.409C216.82 235.682 216.67 236.064 216.67 236.557C216.67 236.886 216.741 237.178 216.881 237.432C217.021 237.682 217.225 237.879 217.494 238.023C217.759 238.163 218.08 238.235 218.455 238.239ZM211.864 217.193H223.5V219.318L216.176 224.381V224.466H223.5V226.926H211.864V224.767L219.182 219.744V219.642H211.864V217.193ZM223.67 211.263C223.67 212.145 223.483 212.909 223.108 213.553C222.729 214.193 222.203 214.687 221.528 215.036C220.85 215.384 220.064 215.558 219.17 215.558C218.269 215.558 217.481 215.384 216.807 215.036C216.129 214.687 215.602 214.193 215.227 213.553C214.848 212.909 214.659 212.145 214.659 211.263C214.659 210.38 214.848 209.619 215.227 208.979C215.602 208.335 216.129 207.839 216.807 207.49C217.481 207.142 218.269 206.967 219.17 206.967C220.064 206.967 220.85 207.142 221.528 207.49C222.203 207.839 222.729 208.335 223.108 208.979C223.483 209.619 223.67 210.38 223.67 211.263ZM221.795 211.251C221.795 210.85 221.682 210.515 221.455 210.246C221.223 209.977 220.909 209.774 220.511 209.638C220.114 209.498 219.661 209.428 219.153 209.428C218.646 209.428 218.193 209.498 217.795 209.638C217.398 209.774 217.083 209.977 216.852 210.246C216.621 210.515 216.506 210.85 216.506 211.251C216.506 211.657 216.621 211.998 216.852 212.274C217.083 212.547 217.398 212.753 217.795 212.893C218.193 213.03 218.646 213.098 219.153 213.098C219.661 213.098 220.114 213.03 220.511 212.893C220.909 212.753 221.223 212.547 221.455 212.274C221.682 211.998 221.795 211.657 221.795 211.251ZM223.5 205.393H214.773V203.047H216.295V202.956C215.754 202.797 215.345 202.53 215.068 202.155C214.788 201.78 214.648 201.348 214.648 200.859C214.648 200.738 214.655 200.607 214.67 200.467C214.686 200.327 214.706 200.204 214.733 200.098H216.881C216.847 200.212 216.816 200.369 216.79 200.57C216.763 200.77 216.75 200.954 216.75 201.121C216.75 201.477 216.828 201.795 216.983 202.075C217.134 202.352 217.347 202.571 217.619 202.734C217.892 202.893 218.206 202.973 218.562 202.973H223.5V205.393ZM223.5 198.847H214.773V196.54H216.312V196.438C215.801 196.256 215.398 195.953 215.102 195.528C214.807 195.104 214.659 194.597 214.659 194.006C214.659 193.407 214.809 192.898 215.108 192.477C215.403 192.057 215.805 191.777 216.312 191.636V191.545C215.812 191.367 215.413 191.045 215.114 190.58C214.811 190.11 214.659 189.555 214.659 188.915C214.659 188.1 214.919 187.439 215.438 186.932C215.953 186.42 216.684 186.165 217.631 186.165H223.5V188.58H218.108C217.623 188.58 217.259 188.708 217.017 188.966C216.775 189.223 216.653 189.545 216.653 189.932C216.653 190.371 216.794 190.714 217.074 190.96C217.35 191.206 217.716 191.33 218.17 191.33H223.5V193.676H218.057C217.629 193.676 217.288 193.799 217.034 194.045C216.78 194.288 216.653 194.608 216.653 195.006C216.653 195.275 216.722 195.517 216.858 195.733C216.991 195.945 217.178 196.114 217.42 196.239C217.659 196.364 217.939 196.426 218.261 196.426H223.5V198.847Z" fill="black"/>
<rect x="248" y="330.5" width="199" height="39" transform="rotate(-90 248 330.5)" fill="#A3D2FF" stroke="#007BFF"/>
<path d="M273.5 249.989H261.864V245.398C261.864 244.519 262.021 243.769 262.335 243.148C262.646 242.523 263.087 242.047 263.659 241.722C264.227 241.392 264.896 241.227 265.665 241.227C266.437 241.227 267.102 241.394 267.659 241.727C268.212 242.061 268.636 242.544 268.932 243.176C269.227 243.805 269.375 244.566 269.375 245.46V248.534H267.398V245.858C267.398 245.388 267.333 244.998 267.205 244.688C267.076 244.377 266.883 244.146 266.625 243.994C266.367 243.839 266.047 243.761 265.665 243.761C265.278 243.761 264.953 243.839 264.688 243.994C264.422 244.146 264.222 244.379 264.085 244.693C263.945 245.004 263.875 245.396 263.875 245.869V247.528H273.5V249.989ZM268.205 243.705L273.5 240.812V243.528L268.205 246.358V243.705ZM273.67 235.697C273.67 236.595 273.489 237.368 273.125 238.016C272.758 238.66 272.239 239.156 271.568 239.504C270.894 239.853 270.097 240.027 269.176 240.027C268.278 240.027 267.491 239.853 266.812 239.504C266.134 239.156 265.606 238.665 265.227 238.033C264.848 237.396 264.659 236.65 264.659 235.794C264.659 235.218 264.752 234.682 264.938 234.186C265.119 233.686 265.394 233.25 265.761 232.879C266.129 232.504 266.591 232.213 267.148 232.004C267.701 231.796 268.348 231.692 269.091 231.692H269.756V239.061H268.256V233.97C267.907 233.97 267.598 234.046 267.33 234.197C267.061 234.349 266.85 234.559 266.699 234.828C266.544 235.093 266.466 235.402 266.466 235.754C266.466 236.122 266.551 236.447 266.722 236.732C266.888 237.012 267.114 237.232 267.398 237.391C267.678 237.55 267.991 237.631 268.335 237.635H269.761C270.193 237.635 270.566 237.555 270.881 237.396C271.195 237.233 271.438 237.004 271.608 236.709C271.778 236.413 271.864 236.063 271.864 235.658C271.864 235.389 271.826 235.143 271.75 234.919C271.674 234.696 271.561 234.504 271.409 234.345C271.258 234.186 271.072 234.065 270.852 233.982L271 231.743C271.538 231.857 272.008 232.089 272.409 232.442C272.807 232.79 273.117 233.241 273.341 233.794C273.561 234.343 273.67 234.978 273.67 235.697ZM273.5 230.067H261.864V227.607H271.472V222.618H273.5V230.067ZM261.864 213.801V211.341H269.42C270.269 211.341 271.011 211.544 271.648 211.949C272.284 212.35 272.78 212.913 273.136 213.636C273.489 214.36 273.665 215.203 273.665 216.165C273.665 217.131 273.489 217.975 273.136 218.699C272.78 219.422 272.284 219.985 271.648 220.386C271.011 220.788 270.269 220.989 269.42 220.989H261.864V218.528H269.21C269.653 218.528 270.047 218.432 270.392 218.239C270.737 218.042 271.008 217.765 271.205 217.409C271.402 217.053 271.5 216.638 271.5 216.165C271.5 215.687 271.402 215.273 271.205 214.92C271.008 214.564 270.737 214.29 270.392 214.097C270.047 213.9 269.653 213.801 269.21 213.801H261.864Z" fill="black"/>
<path d="M197.5 231H187.5" stroke="#007BFF" stroke-width="2"/>
<path d="M247.5 231H237.5" stroke="#007BFF" stroke-width="2"/>
<path d="M327.5 231H287.5" stroke="#007BFF" stroke-width="2"/>
<path d="M647.5 231H637.5" stroke="#007BFF" stroke-width="2"/>
<path d="M717.5 231H687.5" stroke="#007BFF" stroke-width="2"/>
<path d="M147.5 231L96.5 231" stroke="#007BFF" stroke-width="2"/>
<path d="M622.5 90L126.5 90" stroke="#007BFF" stroke-width="2"/>
<path d="M127.5 231L127.5 90" stroke="#007BFF" stroke-width="2"/>
<path d="M507.5 231H467.5" stroke="#007BFF" stroke-width="2"/>
<rect x="508" y="330.5" width="199" height="39" transform="rotate(-90 508 330.5)" fill="#A3D2FF" fill-opacity="0.29" stroke="#007BFF"/>
<path d="M525.938 255.722V258.21C525.616 258.256 525.33 258.348 525.08 258.489C524.826 258.629 524.61 258.809 524.432 259.028C524.254 259.248 524.117 259.502 524.023 259.79C523.928 260.074 523.881 260.383 523.881 260.716C523.881 261.318 524.03 261.843 524.33 262.29C524.625 262.737 525.057 263.083 525.625 263.33C526.189 263.576 526.875 263.699 527.682 263.699C528.511 263.699 529.208 263.576 529.773 263.33C530.337 263.08 530.763 262.731 531.051 262.284C531.339 261.837 531.483 261.32 531.483 260.733C531.483 260.403 531.439 260.098 531.352 259.818C531.265 259.534 531.138 259.282 530.972 259.062C530.801 258.843 530.595 258.661 530.352 258.517C530.11 258.369 529.833 258.267 529.523 258.21L529.534 255.722C530.068 255.786 530.583 255.947 531.08 256.205C531.572 256.458 532.013 256.801 532.403 257.233C532.79 257.661 533.097 258.172 533.324 258.767C533.547 259.358 533.659 260.027 533.659 260.773C533.659 261.811 533.424 262.739 532.955 263.557C532.485 264.371 531.805 265.015 530.915 265.489C530.025 265.958 528.947 266.193 527.682 266.193C526.413 266.193 525.333 265.955 524.443 265.477C523.553 265 522.875 264.352 522.409 263.534C521.939 262.716 521.705 261.795 521.705 260.773C521.705 260.098 521.799 259.473 521.989 258.898C522.178 258.318 522.455 257.805 522.818 257.358C523.178 256.911 523.619 256.547 524.142 256.267C524.665 255.983 525.263 255.801 525.938 255.722ZM533.67 250.06C533.67 250.942 533.483 251.705 533.108 252.349C532.729 252.99 532.203 253.484 531.528 253.832C530.85 254.181 530.064 254.355 529.17 254.355C528.269 254.355 527.481 254.181 526.807 253.832C526.129 253.484 525.602 252.99 525.227 252.349C524.848 251.705 524.659 250.942 524.659 250.06C524.659 249.177 524.848 248.416 525.227 247.776C525.602 247.132 526.129 246.635 526.807 246.287C527.481 245.938 528.269 245.764 529.17 245.764C530.064 245.764 530.85 245.938 531.528 246.287C532.203 246.635 532.729 247.132 533.108 247.776C533.483 248.416 533.67 249.177 533.67 250.06ZM531.795 250.048C531.795 249.647 531.682 249.312 531.455 249.043C531.223 248.774 530.909 248.571 530.511 248.435C530.114 248.295 529.661 248.224 529.153 248.224C528.646 248.224 528.193 248.295 527.795 248.435C527.398 248.571 527.083 248.774 526.852 249.043C526.621 249.312 526.506 249.647 526.506 250.048C526.506 250.454 526.621 250.795 526.852 251.071C527.083 251.344 527.398 251.55 527.795 251.69C528.193 251.827 528.646 251.895 529.153 251.895C529.661 251.895 530.114 251.827 530.511 251.69C530.909 251.55 531.223 251.344 531.455 251.071C531.682 250.795 531.795 250.454 531.795 250.048ZM528.455 241.77H533.5V244.19H524.773V241.884H526.312V241.781C525.805 241.588 525.403 241.264 525.108 240.81C524.809 240.355 524.659 239.804 524.659 239.156C524.659 238.55 524.792 238.022 525.057 237.571C525.322 237.12 525.701 236.77 526.193 236.52C526.682 236.27 527.265 236.145 527.943 236.145H533.5V238.565H528.375C527.841 238.562 527.424 238.698 527.125 238.974C526.822 239.251 526.67 239.632 526.67 240.116C526.67 240.442 526.741 240.73 526.881 240.98C527.021 241.226 527.225 241.42 527.494 241.56C527.759 241.696 528.08 241.766 528.455 241.77ZM524.773 226.413L533.5 229.464V232.192L524.773 235.243V232.686L531.017 230.874V230.783L524.773 228.976V226.413ZM521.864 216.432H533.5V218.892H524.199V218.96L525.869 221.625H523.688L521.864 218.744V216.432ZM531.886 206.524L525.108 213.314L523.602 211.825L530.398 205.03L531.886 206.524ZM531.886 211.825L530.398 213.314L523.602 206.524L525.108 205.03L531.886 211.825ZM521.864 197.729H533.5V200.189H524.199V200.257L525.869 202.922H523.688L521.864 200.041V197.729Z" fill="black"/>
<rect x="558" y="330.5" width="199" height="39" transform="rotate(-90 558 330.5)" stroke="#007BFF" stroke-dasharray="2 2"/>
<path d="M583.5 275.989H571.864V271.33C571.864 270.473 571.991 269.759 572.244 269.188C572.498 268.616 572.85 268.186 573.301 267.898C573.748 267.61 574.263 267.466 574.847 267.466C575.301 267.466 575.701 267.557 576.045 267.739C576.386 267.92 576.667 268.17 576.886 268.489C577.102 268.803 577.256 269.163 577.347 269.568H577.46C577.479 269.125 577.604 268.71 577.835 268.324C578.066 267.934 578.39 267.617 578.807 267.375C579.22 267.133 579.712 267.011 580.284 267.011C580.902 267.011 581.453 267.165 581.938 267.472C582.419 267.775 582.799 268.223 583.08 268.818C583.36 269.413 583.5 270.146 583.5 271.017V275.989ZM581.489 273.528V271.523C581.489 270.837 581.358 270.337 581.097 270.023C580.831 269.708 580.479 269.551 580.04 269.551C579.718 269.551 579.434 269.629 579.188 269.784C578.941 269.939 578.748 270.161 578.608 270.449C578.468 270.733 578.398 271.072 578.398 271.466V273.528H581.489ZM576.733 273.528V271.705C576.733 271.367 576.674 271.068 576.557 270.807C576.436 270.542 576.265 270.333 576.045 270.182C575.826 270.027 575.562 269.949 575.256 269.949C574.835 269.949 574.496 270.098 574.239 270.398C573.981 270.693 573.852 271.114 573.852 271.659V273.528H576.733ZM583.665 262.967C583.665 263.524 583.568 264.02 583.375 264.456C583.178 264.892 582.888 265.236 582.506 265.49C582.119 265.74 581.638 265.865 581.062 265.865C580.578 265.865 580.17 265.776 579.841 265.598C579.511 265.42 579.246 265.178 579.045 264.871C578.845 264.564 578.693 264.215 578.591 263.825C578.489 263.431 578.417 263.018 578.375 262.587C578.322 262.079 578.273 261.67 578.227 261.359C578.178 261.049 578.106 260.823 578.011 260.683C577.917 260.543 577.777 260.473 577.591 260.473H577.557C577.197 260.473 576.919 260.587 576.722 260.814C576.525 261.037 576.426 261.356 576.426 261.768C576.426 262.204 576.523 262.551 576.716 262.808C576.905 263.066 577.144 263.236 577.432 263.32L577.25 265.558C576.72 265.445 576.261 265.221 575.875 264.888C575.485 264.554 575.186 264.125 574.977 263.598C574.765 263.068 574.659 262.454 574.659 261.757C574.659 261.272 574.716 260.808 574.83 260.365C574.943 259.918 575.119 259.522 575.358 259.178C575.597 258.829 575.903 258.554 576.278 258.354C576.65 258.153 577.095 258.053 577.614 258.053H583.5V260.348H582.29V260.416C582.562 260.556 582.803 260.744 583.011 260.979C583.216 261.214 583.377 261.496 583.494 261.825C583.608 262.155 583.665 262.536 583.665 262.967ZM581.994 262.274C581.994 261.918 581.924 261.604 581.784 261.331C581.64 261.058 581.447 260.844 581.205 260.689C580.962 260.534 580.687 260.456 580.381 260.456H579.455C579.504 260.532 579.549 260.636 579.591 260.768C579.629 260.897 579.665 261.043 579.699 261.206C579.729 261.369 579.758 261.532 579.784 261.695C579.807 261.857 579.828 262.005 579.847 262.138C579.888 262.422 579.955 262.67 580.045 262.882C580.136 263.094 580.259 263.259 580.415 263.376C580.566 263.494 580.756 263.553 580.983 263.553C581.312 263.553 581.564 263.433 581.739 263.195C581.909 262.952 581.994 262.645 581.994 262.274ZM574.773 251.533H576.591V256.788H574.773V251.533ZM572.682 255.595V253.175H580.818C581.042 253.175 581.216 253.141 581.341 253.072C581.462 253.004 581.547 252.91 581.597 252.788C581.646 252.663 581.67 252.519 581.67 252.357C581.67 252.243 581.661 252.129 581.642 252.016C581.619 251.902 581.602 251.815 581.591 251.754L583.392 251.374C583.43 251.495 583.473 251.665 583.523 251.885C583.576 252.105 583.608 252.372 583.619 252.686C583.642 253.269 583.564 253.781 583.386 254.22C583.208 254.656 582.932 254.995 582.557 255.237C582.182 255.48 581.708 255.599 581.136 255.595H572.682ZM583.67 246.107C583.67 247 583.481 247.769 583.102 248.413C582.72 249.054 582.189 249.546 581.511 249.891C580.833 250.232 580.053 250.402 579.17 250.402C578.277 250.402 577.492 250.23 576.818 249.885C576.14 249.536 575.612 249.042 575.233 248.402C574.85 247.762 574.659 247 574.659 246.118C574.659 245.357 574.797 244.69 575.074 244.118C575.35 243.546 575.739 243.093 576.239 242.76C576.739 242.427 577.326 242.243 578 242.209V244.493C577.564 244.557 577.214 244.728 576.949 245.004C576.68 245.277 576.545 245.635 576.545 246.078C576.545 246.453 576.648 246.781 576.852 247.061C577.053 247.338 577.347 247.554 577.733 247.709C578.119 247.864 578.587 247.942 579.136 247.942C579.693 247.942 580.167 247.866 580.557 247.714C580.947 247.559 581.244 247.341 581.449 247.061C581.653 246.781 581.756 246.453 581.756 246.078C581.756 245.802 581.699 245.554 581.585 245.334C581.472 245.11 581.307 244.927 581.091 244.783C580.871 244.635 580.608 244.538 580.301 244.493V242.209C580.968 242.247 581.555 242.429 582.062 242.754C582.566 243.076 582.96 243.521 583.244 244.089C583.528 244.658 583.67 245.33 583.67 246.107ZM578.455 238.239H583.5V240.659H571.864V238.307H576.312V238.205C575.797 238.008 575.394 237.689 575.102 237.25C574.807 236.811 574.659 236.259 574.659 235.597C574.659 234.991 574.792 234.462 575.057 234.011C575.318 233.557 575.695 233.205 576.188 232.955C576.676 232.701 577.261 232.576 577.943 232.58H583.5V235H578.375C577.837 234.996 577.419 235.133 577.119 235.409C576.82 235.682 576.67 236.064 576.67 236.557C576.67 236.886 576.741 237.178 576.881 237.432C577.021 237.682 577.225 237.879 577.494 238.023C577.759 238.163 578.08 238.235 578.455 238.239ZM571.864 217.193H583.5V219.318L576.176 224.381V224.466H583.5V226.926H571.864V224.767L579.182 219.744V219.642H571.864V217.193ZM583.67 211.263C583.67 212.145 583.483 212.909 583.108 213.553C582.729 214.193 582.203 214.687 581.528 215.036C580.85 215.384 580.064 215.558 579.17 215.558C578.269 215.558 577.481 215.384 576.807 215.036C576.129 214.687 575.602 214.193 575.227 213.553C574.848 212.909 574.659 212.145 574.659 211.263C574.659 210.38 574.848 209.619 575.227 208.979C575.602 208.335 576.129 207.839 576.807 207.49C577.481 207.142 578.269 206.967 579.17 206.967C580.064 206.967 580.85 207.142 581.528 207.49C582.203 207.839 582.729 208.335 583.108 208.979C583.483 209.619 583.67 210.38 583.67 211.263ZM581.795 211.251C581.795 210.85 581.682 210.515 581.455 210.246C581.223 209.977 580.909 209.774 580.511 209.638C580.114 209.498 579.661 209.428 579.153 209.428C578.646 209.428 578.193 209.498 577.795 209.638C577.398 209.774 577.083 209.977 576.852 210.246C576.621 210.515 576.506 210.85 576.506 211.251C576.506 211.657 576.621 211.998 576.852 212.274C577.083 212.547 577.398 212.753 577.795 212.893C578.193 213.03 578.646 213.098 579.153 213.098C579.661 213.098 580.114 213.03 580.511 212.893C580.909 212.753 581.223 212.547 581.455 212.274C581.682 211.998 581.795 211.657 581.795 211.251ZM583.5 205.393H574.773V203.047H576.295V202.956C575.754 202.797 575.345 202.53 575.068 202.155C574.788 201.78 574.648 201.348 574.648 200.859C574.648 200.738 574.655 200.607 574.67 200.467C574.686 200.327 574.706 200.204 574.733 200.098H576.881C576.847 200.212 576.816 200.369 576.79 200.57C576.763 200.77 576.75 200.954 576.75 201.121C576.75 201.477 576.828 201.795 576.983 202.075C577.134 202.352 577.347 202.571 577.619 202.734C577.892 202.893 578.206 202.973 578.562 202.973H583.5V205.393ZM583.5 198.847H574.773V196.54H576.312V196.438C575.801 196.256 575.398 195.953 575.102 195.528C574.807 195.104 574.659 194.597 574.659 194.006C574.659 193.407 574.809 192.898 575.108 192.477C575.403 192.057 575.805 191.777 576.312 191.636V191.545C575.812 191.367 575.413 191.045 575.114 190.58C574.811 190.11 574.659 189.555 574.659 188.915C574.659 188.1 574.919 187.439 575.438 186.932C575.953 186.42 576.684 186.165 577.631 186.165H583.5V188.58H578.108C577.623 188.58 577.259 188.708 577.017 188.966C576.775 189.223 576.653 189.545 576.653 189.932C576.653 190.371 576.794 190.714 577.074 190.96C577.35 191.206 577.716 191.33 578.17 191.33H583.5V193.676H578.057C577.629 193.676 577.288 193.799 577.034 194.045C576.78 194.288 576.653 194.608 576.653 195.006C576.653 195.275 576.722 195.517 576.858 195.733C576.991 195.945 577.178 196.114 577.42 196.239C577.659 196.364 577.939 196.426 578.261 196.426H583.5V198.847Z" fill="black"/>
<rect x="648" y="330.5" width="199" height="39" transform="rotate(-90 648 330.5)" fill="#A3D2FF" stroke="#007BFF"/>
<path d="M673.5 249.989H661.864V245.398C661.864 244.519 662.021 243.769 662.335 243.148C662.646 242.523 663.087 242.047 663.659 241.722C664.227 241.392 664.896 241.227 665.665 241.227C666.437 241.227 667.102 241.394 667.659 241.727C668.212 242.061 668.636 242.544 668.932 243.176C669.227 243.805 669.375 244.566 669.375 245.46V248.534H667.398V245.858C667.398 245.388 667.333 244.998 667.205 244.688C667.076 244.377 666.883 244.146 666.625 243.994C666.367 243.839 666.047 243.761 665.665 243.761C665.278 243.761 664.953 243.839 664.688 243.994C664.422 244.146 664.222 244.379 664.085 244.693C663.945 245.004 663.875 245.396 663.875 245.869V247.528H673.5V249.989ZM668.205 243.705L673.5 240.812V243.528L668.205 246.358V243.705ZM673.67 235.697C673.67 236.595 673.489 237.368 673.125 238.016C672.758 238.66 672.239 239.156 671.568 239.504C670.894 239.853 670.097 240.027 669.176 240.027C668.278 240.027 667.491 239.853 666.812 239.504C666.134 239.156 665.606 238.665 665.227 238.033C664.848 237.396 664.659 236.65 664.659 235.794C664.659 235.218 664.752 234.682 664.938 234.186C665.119 233.686 665.394 233.25 665.761 232.879C666.129 232.504 666.591 232.213 667.148 232.004C667.701 231.796 668.348 231.692 669.091 231.692H669.756V239.061H668.256V233.97C667.907 233.97 667.598 234.046 667.33 234.197C667.061 234.349 666.85 234.559 666.699 234.828C666.544 235.093 666.466 235.402 666.466 235.754C666.466 236.122 666.551 236.447 666.722 236.732C666.888 237.012 667.114 237.232 667.398 237.391C667.678 237.55 667.991 237.631 668.335 237.635H669.761C670.193 237.635 670.566 237.555 670.881 237.396C671.195 237.233 671.438 237.004 671.608 236.709C671.778 236.413 671.864 236.063 671.864 235.658C671.864 235.389 671.826 235.143 671.75 234.919C671.674 234.696 671.561 234.504 671.409 234.345C671.258 234.186 671.072 234.065 670.852 233.982L671 231.743C671.538 231.857 672.008 232.089 672.409 232.442C672.807 232.79 673.117 233.241 673.341 233.794C673.561 234.343 673.67 234.978 673.67 235.697ZM673.5 230.067H661.864V227.607H671.472V222.618H673.5V230.067ZM661.864 213.801V211.341H669.42C670.269 211.341 671.011 211.544 671.648 211.949C672.284 212.35 672.78 212.913 673.136 213.636C673.489 214.36 673.665 215.203 673.665 216.165C673.665 217.131 673.489 217.975 673.136 218.699C672.78 219.422 672.284 219.985 671.648 220.386C671.011 220.788 670.269 220.989 669.42 220.989H661.864V218.528H669.21C669.653 218.528 670.047 218.432 670.392 218.239C670.737 218.042 671.008 217.765 671.205 217.409C671.402 217.053 671.5 216.638 671.5 216.165C671.5 215.687 671.402 215.273 671.205 214.92C671.008 214.564 670.737 214.29 670.392 214.097C670.047 213.9 669.653 213.801 669.21 213.801H661.864Z" fill="black"/>
<path d="M557.5 231H547.5" stroke="#007BFF" stroke-width="2"/>
<path d="M607.5 231H597.5" stroke="#007BFF" stroke-width="2"/>
<rect x="328" y="330.5" width="199" height="39" transform="rotate(-90 328 330.5)" fill="#A3D2FF" fill-opacity="0.29" stroke="#007BFF"/>
<path d="M345.938 255.722V258.21C345.616 258.256 345.33 258.348 345.08 258.489C344.826 258.629 344.61 258.809 344.432 259.028C344.254 259.248 344.117 259.502 344.023 259.79C343.928 260.074 343.881 260.383 343.881 260.716C343.881 261.318 344.03 261.843 344.33 262.29C344.625 262.737 345.057 263.083 345.625 263.33C346.189 263.576 346.875 263.699 347.682 263.699C348.511 263.699 349.208 263.576 349.773 263.33C350.337 263.08 350.763 262.731 351.051 262.284C351.339 261.837 351.483 261.32 351.483 260.733C351.483 260.403 351.439 260.098 351.352 259.818C351.265 259.534 351.138 259.282 350.972 259.062C350.801 258.843 350.595 258.661 350.352 258.517C350.11 258.369 349.833 258.267 349.523 258.21L349.534 255.722C350.068 255.786 350.583 255.947 351.08 256.205C351.572 256.458 352.013 256.801 352.403 257.233C352.79 257.661 353.097 258.172 353.324 258.767C353.547 259.358 353.659 260.027 353.659 260.773C353.659 261.811 353.424 262.739 352.955 263.557C352.485 264.371 351.805 265.015 350.915 265.489C350.025 265.958 348.947 266.193 347.682 266.193C346.413 266.193 345.333 265.955 344.443 265.477C343.553 265 342.875 264.352 342.409 263.534C341.939 262.716 341.705 261.795 341.705 260.773C341.705 260.098 341.799 259.473 341.989 258.898C342.178 258.318 342.455 257.805 342.818 257.358C343.178 256.911 343.619 256.547 344.142 256.267C344.665 255.983 345.263 255.801 345.938 255.722ZM353.67 250.06C353.67 250.942 353.483 251.705 353.108 252.349C352.729 252.99 352.203 253.484 351.528 253.832C350.85 254.181 350.064 254.355 349.17 254.355C348.269 254.355 347.481 254.181 346.807 253.832C346.129 253.484 345.602 252.99 345.227 252.349C344.848 251.705 344.659 250.942 344.659 250.06C344.659 249.177 344.848 248.416 345.227 247.776C345.602 247.132 346.129 246.635 346.807 246.287C347.481 245.938 348.269 245.764 349.17 245.764C350.064 245.764 350.85 245.938 351.528 246.287C352.203 246.635 352.729 247.132 353.108 247.776C353.483 248.416 353.67 249.177 353.67 250.06ZM351.795 250.048C351.795 249.647 351.682 249.312 351.455 249.043C351.223 248.774 350.909 248.571 350.511 248.435C350.114 248.295 349.661 248.224 349.153 248.224C348.646 248.224 348.193 248.295 347.795 248.435C347.398 248.571 347.083 248.774 346.852 249.043C346.621 249.312 346.506 249.647 346.506 250.048C346.506 250.454 346.621 250.795 346.852 251.071C347.083 251.344 347.398 251.55 347.795 251.69C348.193 251.827 348.646 251.895 349.153 251.895C349.661 251.895 350.114 251.827 350.511 251.69C350.909 251.55 351.223 251.344 351.455 251.071C351.682 250.795 351.795 250.454 351.795 250.048ZM348.455 241.77H353.5V244.19H344.773V241.884H346.312V241.781C345.805 241.588 345.403 241.264 345.108 240.81C344.809 240.355 344.659 239.804 344.659 239.156C344.659 238.55 344.792 238.022 345.057 237.571C345.322 237.12 345.701 236.77 346.193 236.52C346.682 236.27 347.265 236.145 347.943 236.145H353.5V238.565H348.375C347.841 238.562 347.424 238.698 347.125 238.974C346.822 239.251 346.67 239.632 346.67 240.116C346.67 240.442 346.741 240.73 346.881 240.98C347.021 241.226 347.225 241.42 347.494 241.56C347.759 241.696 348.08 241.766 348.455 241.77ZM344.773 226.413L353.5 229.464V232.192L344.773 235.243V232.686L351.017 230.874V230.783L344.773 228.976V226.413ZM353.659 217.193C353.659 218.042 353.513 218.797 353.222 219.46C352.926 220.119 352.521 220.64 352.006 221.023C351.487 221.402 350.888 221.597 350.21 221.608V219.131C350.494 219.116 350.744 219.023 350.96 218.852C351.172 218.678 351.337 218.447 351.455 218.159C351.572 217.871 351.631 217.547 351.631 217.188C351.631 216.812 351.564 216.481 351.432 216.193C351.299 215.905 351.116 215.68 350.881 215.517C350.646 215.354 350.375 215.273 350.068 215.273C349.758 215.273 349.483 215.36 349.244 215.534C349.002 215.705 348.812 215.951 348.676 216.273C348.54 216.591 348.472 216.97 348.472 217.409V218.494H346.665V217.409C346.665 217.038 346.6 216.71 346.472 216.426C346.343 216.138 346.165 215.915 345.938 215.756C345.706 215.597 345.438 215.517 345.131 215.517C344.839 215.517 344.583 215.587 344.364 215.727C344.14 215.864 343.966 216.057 343.841 216.307C343.716 216.553 343.653 216.841 343.653 217.17C343.653 217.504 343.714 217.809 343.835 218.085C343.953 218.362 344.121 218.583 344.341 218.75C344.561 218.917 344.818 219.006 345.114 219.017V221.375C344.443 221.364 343.852 221.172 343.341 220.801C342.83 220.43 342.43 219.93 342.142 219.301C341.85 218.669 341.705 217.955 341.705 217.159C341.705 216.356 341.85 215.653 342.142 215.051C342.434 214.449 342.828 213.981 343.324 213.648C343.816 213.311 344.369 213.144 344.983 213.148C345.634 213.144 346.178 213.347 346.614 213.756C347.049 214.161 347.326 214.689 347.443 215.341H347.534C347.644 214.485 347.941 213.833 348.426 213.386C348.907 212.936 349.509 212.712 350.233 212.716C350.896 212.712 351.485 212.903 352 213.29C352.515 213.672 352.92 214.201 353.216 214.875C353.511 215.549 353.659 216.322 353.659 217.193ZM351.886 203.805L345.108 210.595L343.602 209.107L350.398 202.311L351.886 203.805ZM351.886 209.107L350.398 210.595L343.602 203.805L345.108 202.311L351.886 209.107ZM353.659 195.771C353.659 196.62 353.513 197.375 353.222 198.038C352.926 198.697 352.521 199.218 352.006 199.601C351.487 199.98 350.888 200.175 350.21 200.186V197.709C350.494 197.694 350.744 197.601 350.96 197.43C351.172 197.256 351.337 197.025 351.455 196.737C351.572 196.449 351.631 196.125 351.631 195.766C351.631 195.391 351.564 195.059 351.432 194.771C351.299 194.483 351.116 194.258 350.881 194.095C350.646 193.932 350.375 193.851 350.068 193.851C349.758 193.851 349.483 193.938 349.244 194.112C349.002 194.283 348.812 194.529 348.676 194.851C348.54 195.169 348.472 195.548 348.472 195.987V197.072H346.665V195.987C346.665 195.616 346.6 195.288 346.472 195.004C346.343 194.716 346.165 194.493 345.938 194.334C345.706 194.175 345.438 194.095 345.131 194.095C344.839 194.095 344.583 194.165 344.364 194.305C344.14 194.442 343.966 194.635 343.841 194.885C343.716 195.131 343.653 195.419 343.653 195.749C343.653 196.082 343.714 196.387 343.835 196.663C343.953 196.94 344.121 197.161 344.341 197.328C344.561 197.495 344.818 197.584 345.114 197.595V199.953C344.443 199.942 343.852 199.75 343.341 199.379C342.83 199.008 342.43 198.508 342.142 197.879C341.85 197.247 341.705 196.533 341.705 195.737C341.705 194.934 341.85 194.232 342.142 193.629C342.434 193.027 342.828 192.559 343.324 192.226C343.816 191.889 344.369 191.722 344.983 191.726C345.634 191.722 346.178 191.925 346.614 192.334C347.049 192.739 347.326 193.268 347.443 193.919H347.534C347.644 193.063 347.941 192.411 348.426 191.964C348.907 191.514 349.509 191.29 350.233 191.294C350.896 191.29 351.485 191.482 352 191.868C352.515 192.25 352.92 192.779 353.216 193.453C353.511 194.127 353.659 194.9 353.659 195.771Z" fill="black"/>
<rect x="378" y="330.5" width="199" height="39" transform="rotate(-90 378 330.5)" stroke="#007BFF" stroke-dasharray="2 2"/>
<path d="M403.5 275.989H391.864V271.33C391.864 270.473 391.991 269.759 392.244 269.188C392.498 268.616 392.85 268.186 393.301 267.898C393.748 267.61 394.263 267.466 394.847 267.466C395.301 267.466 395.701 267.557 396.045 267.739C396.386 267.92 396.667 268.17 396.886 268.489C397.102 268.803 397.256 269.163 397.347 269.568H397.46C397.479 269.125 397.604 268.71 397.835 268.324C398.066 267.934 398.39 267.617 398.807 267.375C399.22 267.133 399.712 267.011 400.284 267.011C400.902 267.011 401.453 267.165 401.938 267.472C402.419 267.775 402.799 268.223 403.08 268.818C403.36 269.413 403.5 270.146 403.5 271.017V275.989ZM401.489 273.528V271.523C401.489 270.837 401.358 270.337 401.097 270.023C400.831 269.708 400.479 269.551 400.04 269.551C399.718 269.551 399.434 269.629 399.188 269.784C398.941 269.939 398.748 270.161 398.608 270.449C398.468 270.733 398.398 271.072 398.398 271.466V273.528H401.489ZM396.733 273.528V271.705C396.733 271.367 396.674 271.068 396.557 270.807C396.436 270.542 396.265 270.333 396.045 270.182C395.826 270.027 395.562 269.949 395.256 269.949C394.835 269.949 394.496 270.098 394.239 270.398C393.981 270.693 393.852 271.114 393.852 271.659V273.528H396.733ZM403.665 262.967C403.665 263.524 403.568 264.02 403.375 264.456C403.178 264.892 402.888 265.236 402.506 265.49C402.119 265.74 401.638 265.865 401.062 265.865C400.578 265.865 400.17 265.776 399.841 265.598C399.511 265.42 399.246 265.178 399.045 264.871C398.845 264.564 398.693 264.215 398.591 263.825C398.489 263.431 398.417 263.018 398.375 262.587C398.322 262.079 398.273 261.67 398.227 261.359C398.178 261.049 398.106 260.823 398.011 260.683C397.917 260.543 397.777 260.473 397.591 260.473H397.557C397.197 260.473 396.919 260.587 396.722 260.814C396.525 261.037 396.426 261.356 396.426 261.768C396.426 262.204 396.523 262.551 396.716 262.808C396.905 263.066 397.144 263.236 397.432 263.32L397.25 265.558C396.72 265.445 396.261 265.221 395.875 264.888C395.485 264.554 395.186 264.125 394.977 263.598C394.765 263.068 394.659 262.454 394.659 261.757C394.659 261.272 394.716 260.808 394.83 260.365C394.943 259.918 395.119 259.522 395.358 259.178C395.597 258.829 395.903 258.554 396.278 258.354C396.65 258.153 397.095 258.053 397.614 258.053H403.5V260.348H402.29V260.416C402.562 260.556 402.803 260.744 403.011 260.979C403.216 261.214 403.377 261.496 403.494 261.825C403.608 262.155 403.665 262.536 403.665 262.967ZM401.994 262.274C401.994 261.918 401.924 261.604 401.784 261.331C401.64 261.058 401.447 260.844 401.205 260.689C400.962 260.534 400.687 260.456 400.381 260.456H399.455C399.504 260.532 399.549 260.636 399.591 260.768C399.629 260.897 399.665 261.043 399.699 261.206C399.729 261.369 399.758 261.532 399.784 261.695C399.807 261.857 399.828 262.005 399.847 262.138C399.888 262.422 399.955 262.67 400.045 262.882C400.136 263.094 400.259 263.259 400.415 263.376C400.566 263.494 400.756 263.553 400.983 263.553C401.312 263.553 401.564 263.433 401.739 263.195C401.909 262.952 401.994 262.645 401.994 262.274ZM394.773 251.533H396.591V256.788H394.773V251.533ZM392.682 255.595V253.175H400.818C401.042 253.175 401.216 253.141 401.341 253.072C401.462 253.004 401.547 252.91 401.597 252.788C401.646 252.663 401.67 252.519 401.67 252.357C401.67 252.243 401.661 252.129 401.642 252.016C401.619 251.902 401.602 251.815 401.591 251.754L403.392 251.374C403.43 251.495 403.473 251.665 403.523 251.885C403.576 252.105 403.608 252.372 403.619 252.686C403.642 253.269 403.564 253.781 403.386 254.22C403.208 254.656 402.932 254.995 402.557 255.237C402.182 255.48 401.708 255.599 401.136 255.595H392.682ZM403.67 246.107C403.67 247 403.481 247.769 403.102 248.413C402.72 249.054 402.189 249.546 401.511 249.891C400.833 250.232 400.053 250.402 399.17 250.402C398.277 250.402 397.492 250.23 396.818 249.885C396.14 249.536 395.612 249.042 395.233 248.402C394.85 247.762 394.659 247 394.659 246.118C394.659 245.357 394.797 244.69 395.074 244.118C395.35 243.546 395.739 243.093 396.239 242.76C396.739 242.427 397.326 242.243 398 242.209V244.493C397.564 244.557 397.214 244.728 396.949 245.004C396.68 245.277 396.545 245.635 396.545 246.078C396.545 246.453 396.648 246.781 396.852 247.061C397.053 247.338 397.347 247.554 397.733 247.709C398.119 247.864 398.587 247.942 399.136 247.942C399.693 247.942 400.167 247.866 400.557 247.714C400.947 247.559 401.244 247.341 401.449 247.061C401.653 246.781 401.756 246.453 401.756 246.078C401.756 245.802 401.699 245.554 401.585 245.334C401.472 245.11 401.307 244.927 401.091 244.783C400.871 244.635 400.608 244.538 400.301 244.493V242.209C400.968 242.247 401.555 242.429 402.062 242.754C402.566 243.076 402.96 243.521 403.244 244.089C403.528 244.658 403.67 245.33 403.67 246.107ZM398.455 238.239H403.5V240.659H391.864V238.307H396.312V238.205C395.797 238.008 395.394 237.689 395.102 237.25C394.807 236.811 394.659 236.259 394.659 235.597C394.659 234.991 394.792 234.462 395.057 234.011C395.318 233.557 395.695 233.205 396.188 232.955C396.676 232.701 397.261 232.576 397.943 232.58H403.5V235H398.375C397.837 234.996 397.419 235.133 397.119 235.409C396.82 235.682 396.67 236.064 396.67 236.557C396.67 236.886 396.741 237.178 396.881 237.432C397.021 237.682 397.225 237.879 397.494 238.023C397.759 238.163 398.08 238.235 398.455 238.239ZM391.864 217.193H403.5V219.318L396.176 224.381V224.466H403.5V226.926H391.864V224.767L399.182 219.744V219.642H391.864V217.193ZM403.67 211.263C403.67 212.145 403.483 212.909 403.108 213.553C402.729 214.193 402.203 214.687 401.528 215.036C400.85 215.384 400.064 215.558 399.17 215.558C398.269 215.558 397.481 215.384 396.807 215.036C396.129 214.687 395.602 214.193 395.227 213.553C394.848 212.909 394.659 212.145 394.659 211.263C394.659 210.38 394.848 209.619 395.227 208.979C395.602 208.335 396.129 207.839 396.807 207.49C397.481 207.142 398.269 206.967 399.17 206.967C400.064 206.967 400.85 207.142 401.528 207.49C402.203 207.839 402.729 208.335 403.108 208.979C403.483 209.619 403.67 210.38 403.67 211.263ZM401.795 211.251C401.795 210.85 401.682 210.515 401.455 210.246C401.223 209.977 400.909 209.774 400.511 209.638C400.114 209.498 399.661 209.428 399.153 209.428C398.646 209.428 398.193 209.498 397.795 209.638C397.398 209.774 397.083 209.977 396.852 210.246C396.621 210.515 396.506 210.85 396.506 211.251C396.506 211.657 396.621 211.998 396.852 212.274C397.083 212.547 397.398 212.753 397.795 212.893C398.193 213.03 398.646 213.098 399.153 213.098C399.661 213.098 400.114 213.03 400.511 212.893C400.909 212.753 401.223 212.547 401.455 212.274C401.682 211.998 401.795 211.657 401.795 211.251ZM403.5 205.393H394.773V203.047H396.295V202.956C395.754 202.797 395.345 202.53 395.068 202.155C394.788 201.78 394.648 201.348 394.648 200.859C394.648 200.738 394.655 200.607 394.67 200.467C394.686 200.327 394.706 200.204 394.733 200.098H396.881C396.847 200.212 396.816 200.369 396.79 200.57C396.763 200.77 396.75 200.954 396.75 201.121C396.75 201.477 396.828 201.795 396.983 202.075C397.134 202.352 397.347 202.571 397.619 202.734C397.892 202.893 398.206 202.973 398.562 202.973H403.5V205.393ZM403.5 198.847H394.773V196.54H396.312V196.438C395.801 196.256 395.398 195.953 395.102 195.528C394.807 195.104 394.659 194.597 394.659 194.006C394.659 193.407 394.809 192.898 395.108 192.477C395.403 192.057 395.805 191.777 396.312 191.636V191.545C395.812 191.367 395.413 191.045 395.114 190.58C394.811 190.11 394.659 189.555 394.659 188.915C394.659 188.1 394.919 187.439 395.438 186.932C395.953 186.42 396.684 186.165 397.631 186.165H403.5V188.58H398.108C397.623 188.58 397.259 188.708 397.017 188.966C396.775 189.223 396.653 189.545 396.653 189.932C396.653 190.371 396.794 190.714 397.074 190.96C397.35 191.206 397.716 191.33 398.17 191.33H403.5V193.676H398.057C397.629 193.676 397.288 193.799 397.034 194.045C396.78 194.288 396.653 194.608 396.653 195.006C396.653 195.275 396.722 195.517 396.858 195.733C396.991 195.945 397.178 196.114 397.42 196.239C397.659 196.364 397.939 196.426 398.261 196.426H403.5V198.847Z" fill="black"/>
<rect x="428" y="330.5" width="199" height="39" transform="rotate(-90 428 330.5)" fill="#A3D2FF" stroke="#007BFF"/>
<path d="M453.5 249.989H441.864V245.398C441.864 244.519 442.021 243.769 442.335 243.148C442.646 242.523 443.087 242.047 443.659 241.722C444.227 241.392 444.896 241.227 445.665 241.227C446.437 241.227 447.102 241.394 447.659 241.727C448.212 242.061 448.636 242.544 448.932 243.176C449.227 243.805 449.375 244.566 449.375 245.46V248.534H447.398V245.858C447.398 245.388 447.333 244.998 447.205 244.688C447.076 244.377 446.883 244.146 446.625 243.994C446.367 243.839 446.047 243.761 445.665 243.761C445.278 243.761 444.953 243.839 444.688 243.994C444.422 244.146 444.222 244.379 444.085 244.693C443.945 245.004 443.875 245.396 443.875 245.869V247.528H453.5V249.989ZM448.205 243.705L453.5 240.812V243.528L448.205 246.358V243.705ZM453.67 235.697C453.67 236.595 453.489 237.368 453.125 238.016C452.758 238.66 452.239 239.156 451.568 239.504C450.894 239.853 450.097 240.027 449.176 240.027C448.278 240.027 447.491 239.853 446.812 239.504C446.134 239.156 445.606 238.665 445.227 238.033C444.848 237.396 444.659 236.65 444.659 235.794C444.659 235.218 444.752 234.682 444.938 234.186C445.119 233.686 445.394 233.25 445.761 232.879C446.129 232.504 446.591 232.213 447.148 232.004C447.701 231.796 448.348 231.692 449.091 231.692H449.756V239.061H448.256V233.97C447.907 233.97 447.598 234.046 447.33 234.197C447.061 234.349 446.85 234.559 446.699 234.828C446.544 235.093 446.466 235.402 446.466 235.754C446.466 236.122 446.551 236.447 446.722 236.732C446.888 237.012 447.114 237.232 447.398 237.391C447.678 237.55 447.991 237.631 448.335 237.635H449.761C450.193 237.635 450.566 237.555 450.881 237.396C451.195 237.233 451.438 237.004 451.608 236.709C451.778 236.413 451.864 236.063 451.864 235.658C451.864 235.389 451.826 235.143 451.75 234.919C451.674 234.696 451.561 234.504 451.409 234.345C451.258 234.186 451.072 234.065 450.852 233.982L451 231.743C451.538 231.857 452.008 232.089 452.409 232.442C452.807 232.79 453.117 233.241 453.341 233.794C453.561 234.343 453.67 234.978 453.67 235.697ZM453.5 230.067H441.864V227.607H451.472V222.618H453.5V230.067ZM441.864 213.801V211.341H449.42C450.269 211.341 451.011 211.544 451.648 211.949C452.284 212.35 452.78 212.913 453.136 213.636C453.489 214.36 453.665 215.203 453.665 216.165C453.665 217.131 453.489 217.975 453.136 218.699C452.78 219.422 452.284 219.985 451.648 220.386C451.011 220.788 450.269 220.989 449.42 220.989H441.864V218.528H449.21C449.653 218.528 450.047 218.432 450.392 218.239C450.737 218.042 451.008 217.765 451.205 217.409C451.402 217.053 451.5 216.638 451.5 216.165C451.5 215.687 451.402 215.273 451.205 214.92C451.008 214.564 450.737 214.29 450.392 214.097C450.047 213.9 449.653 213.801 449.21 213.801H441.864Z" fill="black"/>
<path d="M377.5 231H367.5" stroke="#007BFF" stroke-width="2"/>
<path d="M427.5 231H417.5" stroke="#007BFF" stroke-width="2"/>
<rect x="328" y="330.5" width="199" height="39" transform="rotate(-90 328 330.5)" fill="#A3D2FF" fill-opacity="0.29" stroke="#007BFF"/>
<path d="M345.938 255.722V258.21C345.616 258.256 345.33 258.348 345.08 258.489C344.826 258.629 344.61 258.809 344.432 259.028C344.254 259.248 344.117 259.502 344.023 259.79C343.928 260.074 343.881 260.383 343.881 260.716C343.881 261.318 344.03 261.843 344.33 262.29C344.625 262.737 345.057 263.083 345.625 263.33C346.189 263.576 346.875 263.699 347.682 263.699C348.511 263.699 349.208 263.576 349.773 263.33C350.337 263.08 350.763 262.731 351.051 262.284C351.339 261.837 351.483 261.32 351.483 260.733C351.483 260.403 351.439 260.098 351.352 259.818C351.265 259.534 351.138 259.282 350.972 259.062C350.801 258.843 350.595 258.661 350.352 258.517C350.11 258.369 349.833 258.267 349.523 258.21L349.534 255.722C350.068 255.786 350.583 255.947 351.08 256.205C351.572 256.458 352.013 256.801 352.403 257.233C352.79 257.661 353.097 258.172 353.324 258.767C353.547 259.358 353.659 260.027 353.659 260.773C353.659 261.811 353.424 262.739 352.955 263.557C352.485 264.371 351.805 265.015 350.915 265.489C350.025 265.958 348.947 266.193 347.682 266.193C346.413 266.193 345.333 265.955 344.443 265.477C343.553 265 342.875 264.352 342.409 263.534C341.939 262.716 341.705 261.795 341.705 260.773C341.705 260.098 341.799 259.473 341.989 258.898C342.178 258.318 342.455 257.805 342.818 257.358C343.178 256.911 343.619 256.547 344.142 256.267C344.665 255.983 345.263 255.801 345.938 255.722ZM353.67 250.06C353.67 250.942 353.483 251.705 353.108 252.349C352.729 252.99 352.203 253.484 351.528 253.832C350.85 254.181 350.064 254.355 349.17 254.355C348.269 254.355 347.481 254.181 346.807 253.832C346.129 253.484 345.602 252.99 345.227 252.349C344.848 251.705 344.659 250.942 344.659 250.06C344.659 249.177 344.848 248.416 345.227 247.776C345.602 247.132 346.129 246.635 346.807 246.287C347.481 245.938 348.269 245.764 349.17 245.764C350.064 245.764 350.85 245.938 351.528 246.287C352.203 246.635 352.729 247.132 353.108 247.776C353.483 248.416 353.67 249.177 353.67 250.06ZM351.795 250.048C351.795 249.647 351.682 249.312 351.455 249.043C351.223 248.774 350.909 248.571 350.511 248.435C350.114 248.295 349.661 248.224 349.153 248.224C348.646 248.224 348.193 248.295 347.795 248.435C347.398 248.571 347.083 248.774 346.852 249.043C346.621 249.312 346.506 249.647 346.506 250.048C346.506 250.454 346.621 250.795 346.852 251.071C347.083 251.344 347.398 251.55 347.795 251.69C348.193 251.827 348.646 251.895 349.153 251.895C349.661 251.895 350.114 251.827 350.511 251.69C350.909 251.55 351.223 251.344 351.455 251.071C351.682 250.795 351.795 250.454 351.795 250.048ZM348.455 241.77H353.5V244.19H344.773V241.884H346.312V241.781C345.805 241.588 345.403 241.264 345.108 240.81C344.809 240.355 344.659 239.804 344.659 239.156C344.659 238.55 344.792 238.022 345.057 237.571C345.322 237.12 345.701 236.77 346.193 236.52C346.682 236.27 347.265 236.145 347.943 236.145H353.5V238.565H348.375C347.841 238.562 347.424 238.698 347.125 238.974C346.822 239.251 346.67 239.632 346.67 240.116C346.67 240.442 346.741 240.73 346.881 240.98C347.021 241.226 347.225 241.42 347.494 241.56C347.759 241.696 348.08 241.766 348.455 241.77ZM344.773 226.413L353.5 229.464V232.192L344.773 235.243V232.686L351.017 230.874V230.783L344.773 228.976V226.413ZM353.659 217.193C353.659 218.042 353.513 218.797 353.222 219.46C352.926 220.119 352.521 220.64 352.006 221.023C351.487 221.402 350.888 221.597 350.21 221.608V219.131C350.494 219.116 350.744 219.023 350.96 218.852C351.172 218.678 351.337 218.447 351.455 218.159C351.572 217.871 351.631 217.547 351.631 217.188C351.631 216.812 351.564 216.481 351.432 216.193C351.299 215.905 351.116 215.68 350.881 215.517C350.646 215.354 350.375 215.273 350.068 215.273C349.758 215.273 349.483 215.36 349.244 215.534C349.002 215.705 348.812 215.951 348.676 216.273C348.54 216.591 348.472 216.97 348.472 217.409V218.494H346.665V217.409C346.665 217.038 346.6 216.71 346.472 216.426C346.343 216.138 346.165 215.915 345.938 215.756C345.706 215.597 345.438 215.517 345.131 215.517C344.839 215.517 344.583 215.587 344.364 215.727C344.14 215.864 343.966 216.057 343.841 216.307C343.716 216.553 343.653 216.841 343.653 217.17C343.653 217.504 343.714 217.809 343.835 218.085C343.953 218.362 344.121 218.583 344.341 218.75C344.561 218.917 344.818 219.006 345.114 219.017V221.375C344.443 221.364 343.852 221.172 343.341 220.801C342.83 220.43 342.43 219.93 342.142 219.301C341.85 218.669 341.705 217.955 341.705 217.159C341.705 216.356 341.85 215.653 342.142 215.051C342.434 214.449 342.828 213.981 343.324 213.648C343.816 213.311 344.369 213.144 344.983 213.148C345.634 213.144 346.178 213.347 346.614 213.756C347.049 214.161 347.326 214.689 347.443 215.341H347.534C347.644 214.485 347.941 213.833 348.426 213.386C348.907 212.936 349.509 212.712 350.233 212.716C350.896 212.712 351.485 212.903 352 213.29C352.515 213.672 352.92 214.201 353.216 214.875C353.511 215.549 353.659 216.322 353.659 217.193ZM351.886 203.805L345.108 210.595L343.602 209.107L350.398 202.311L351.886 203.805ZM351.886 209.107L350.398 210.595L343.602 203.805L345.108 202.311L351.886 209.107ZM353.659 195.771C353.659 196.62 353.513 197.375 353.222 198.038C352.926 198.697 352.521 199.218 352.006 199.601C351.487 199.98 350.888 200.175 350.21 200.186V197.709C350.494 197.694 350.744 197.601 350.96 197.43C351.172 197.256 351.337 197.025 351.455 196.737C351.572 196.449 351.631 196.125 351.631 195.766C351.631 195.391 351.564 195.059 351.432 194.771C351.299 194.483 351.116 194.258 350.881 194.095C350.646 193.932 350.375 193.851 350.068 193.851C349.758 193.851 349.483 193.938 349.244 194.112C349.002 194.283 348.812 194.529 348.676 194.851C348.54 195.169 348.472 195.548 348.472 195.987V197.072H346.665V195.987C346.665 195.616 346.6 195.288 346.472 195.004C346.343 194.716 346.165 194.493 345.938 194.334C345.706 194.175 345.438 194.095 345.131 194.095C344.839 194.095 344.583 194.165 344.364 194.305C344.14 194.442 343.966 194.635 343.841 194.885C343.716 195.131 343.653 195.419 343.653 195.749C343.653 196.082 343.714 196.387 343.835 196.663C343.953 196.94 344.121 197.161 344.341 197.328C344.561 197.495 344.818 197.584 345.114 197.595V199.953C344.443 199.942 343.852 199.75 343.341 199.379C342.83 199.008 342.43 198.508 342.142 197.879C341.85 197.247 341.705 196.533 341.705 195.737C341.705 194.934 341.85 194.232 342.142 193.629C342.434 193.027 342.828 192.559 343.324 192.226C343.816 191.889 344.369 191.722 344.983 191.726C345.634 191.722 346.178 191.925 346.614 192.334C347.049 192.739 347.326 193.268 347.443 193.919H347.534C347.644 193.063 347.941 192.411 348.426 191.964C348.907 191.514 349.509 191.29 350.233 191.294C350.896 191.29 351.485 191.482 352 191.868C352.515 192.25 352.92 192.779 353.216 193.453C353.511 194.127 353.659 194.9 353.659 195.771Z" fill="black"/>
<rect x="378" y="330.5" width="199" height="39" transform="rotate(-90 378 330.5)" stroke="#007BFF" stroke-dasharray="2 2"/>
<path d="M403.5 275.989H391.864V271.33C391.864 270.473 391.991 269.759 392.244 269.188C392.498 268.616 392.85 268.186 393.301 267.898C393.748 267.61 394.263 267.466 394.847 267.466C395.301 267.466 395.701 267.557 396.045 267.739C396.386 267.92 396.667 268.17 396.886 268.489C397.102 268.803 397.256 269.163 397.347 269.568H397.46C397.479 269.125 397.604 268.71 397.835 268.324C398.066 267.934 398.39 267.617 398.807 267.375C399.22 267.133 399.712 267.011 400.284 267.011C400.902 267.011 401.453 267.165 401.938 267.472C402.419 267.775 402.799 268.223 403.08 268.818C403.36 269.413 403.5 270.146 403.5 271.017V275.989ZM401.489 273.528V271.523C401.489 270.837 401.358 270.337 401.097 270.023C400.831 269.708 400.479 269.551 400.04 269.551C399.718 269.551 399.434 269.629 399.188 269.784C398.941 269.939 398.748 270.161 398.608 270.449C398.468 270.733 398.398 271.072 398.398 271.466V273.528H401.489ZM396.733 273.528V271.705C396.733 271.367 396.674 271.068 396.557 270.807C396.436 270.542 396.265 270.333 396.045 270.182C395.826 270.027 395.562 269.949 395.256 269.949C394.835 269.949 394.496 270.098 394.239 270.398C393.981 270.693 393.852 271.114 393.852 271.659V273.528H396.733ZM403.665 262.967C403.665 263.524 403.568 264.02 403.375 264.456C403.178 264.892 402.888 265.236 402.506 265.49C402.119 265.74 401.638 265.865 401.062 265.865C400.578 265.865 400.17 265.776 399.841 265.598C399.511 265.42 399.246 265.178 399.045 264.871C398.845 264.564 398.693 264.215 398.591 263.825C398.489 263.431 398.417 263.018 398.375 262.587C398.322 262.079 398.273 261.67 398.227 261.359C398.178 261.049 398.106 260.823 398.011 260.683C397.917 260.543 397.777 260.473 397.591 260.473H397.557C397.197 260.473 396.919 260.587 396.722 260.814C396.525 261.037 396.426 261.356 396.426 261.768C396.426 262.204 396.523 262.551 396.716 262.808C396.905 263.066 397.144 263.236 397.432 263.32L397.25 265.558C396.72 265.445 396.261 265.221 395.875 264.888C395.485 264.554 395.186 264.125 394.977 263.598C394.765 263.068 394.659 262.454 394.659 261.757C394.659 261.272 394.716 260.808 394.83 260.365C394.943 259.918 395.119 259.522 395.358 259.178C395.597 258.829 395.903 258.554 396.278 258.354C396.65 258.153 397.095 258.053 397.614 258.053H403.5V260.348H402.29V260.416C402.562 260.556 402.803 260.744 403.011 260.979C403.216 261.214 403.377 261.496 403.494 261.825C403.608 262.155 403.665 262.536 403.665 262.967ZM401.994 262.274C401.994 261.918 401.924 261.604 401.784 261.331C401.64 261.058 401.447 260.844 401.205 260.689C400.962 260.534 400.687 260.456 400.381 260.456H399.455C399.504 260.532 399.549 260.636 399.591 260.768C399.629 260.897 399.665 261.043 399.699 261.206C399.729 261.369 399.758 261.532 399.784 261.695C399.807 261.857 399.828 262.005 399.847 262.138C399.888 262.422 399.955 262.67 400.045 262.882C400.136 263.094 400.259 263.259 400.415 263.376C400.566 263.494 400.756 263.553 400.983 263.553C401.312 263.553 401.564 263.433 401.739 263.195C401.909 262.952 401.994 262.645 401.994 262.274ZM394.773 251.533H396.591V256.788H394.773V251.533ZM392.682 255.595V253.175H400.818C401.042 253.175 401.216 253.141 401.341 253.072C401.462 253.004 401.547 252.91 401.597 252.788C401.646 252.663 401.67 252.519 401.67 252.357C401.67 252.243 401.661 252.129 401.642 252.016C401.619 251.902 401.602 251.815 401.591 251.754L403.392 251.374C403.43 251.495 403.473 251.665 403.523 251.885C403.576 252.105 403.608 252.372 403.619 252.686C403.642 253.269 403.564 253.781 403.386 254.22C403.208 254.656 402.932 254.995 402.557 255.237C402.182 255.48 401.708 255.599 401.136 255.595H392.682ZM403.67 246.107C403.67 247 403.481 247.769 403.102 248.413C402.72 249.054 402.189 249.546 401.511 249.891C400.833 250.232 400.053 250.402 399.17 250.402C398.277 250.402 397.492 250.23 396.818 249.885C396.14 249.536 395.612 249.042 395.233 248.402C394.85 247.762 394.659 247 394.659 246.118C394.659 245.357 394.797 244.69 395.074 244.118C395.35 243.546 395.739 243.093 396.239 242.76C396.739 242.427 397.326 242.243 398 242.209V244.493C397.564 244.557 397.214 244.728 396.949 245.004C396.68 245.277 396.545 245.635 396.545 246.078C396.545 246.453 396.648 246.781 396.852 247.061C397.053 247.338 397.347 247.554 397.733 247.709C398.119 247.864 398.587 247.942 399.136 247.942C399.693 247.942 400.167 247.866 400.557 247.714C400.947 247.559 401.244 247.341 401.449 247.061C401.653 246.781 401.756 246.453 401.756 246.078C401.756 245.802 401.699 245.554 401.585 245.334C401.472 245.11 401.307 244.927 401.091 244.783C400.871 244.635 400.608 244.538 400.301 244.493V242.209C400.968 242.247 401.555 242.429 402.062 242.754C402.566 243.076 402.96 243.521 403.244 244.089C403.528 244.658 403.67 245.33 403.67 246.107ZM398.455 238.239H403.5V240.659H391.864V238.307H396.312V238.205C395.797 238.008 395.394 237.689 395.102 237.25C394.807 236.811 394.659 236.259 394.659 235.597C394.659 234.991 394.792 234.462 395.057 234.011C395.318 233.557 395.695 233.205 396.188 232.955C396.676 232.701 397.261 232.576 397.943 232.58H403.5V235H398.375C397.837 234.996 397.419 235.133 397.119 235.409C396.82 235.682 396.67 236.064 396.67 236.557C396.67 236.886 396.741 237.178 396.881 237.432C397.021 237.682 397.225 237.879 397.494 238.023C397.759 238.163 398.08 238.235 398.455 238.239ZM391.864 217.193H403.5V219.318L396.176 224.381V224.466H403.5V226.926H391.864V224.767L399.182 219.744V219.642H391.864V217.193ZM403.67 211.263C403.67 212.145 403.483 212.909 403.108 213.553C402.729 214.193 402.203 214.687 401.528 215.036C400.85 215.384 400.064 215.558 399.17 215.558C398.269 215.558 397.481 215.384 396.807 215.036C396.129 214.687 395.602 214.193 395.227 213.553C394.848 212.909 394.659 212.145 394.659 211.263C394.659 210.38 394.848 209.619 395.227 208.979C395.602 208.335 396.129 207.839 396.807 207.49C397.481 207.142 398.269 206.967 399.17 206.967C400.064 206.967 400.85 207.142 401.528 207.49C402.203 207.839 402.729 208.335 403.108 208.979C403.483 209.619 403.67 210.38 403.67 211.263ZM401.795 211.251C401.795 210.85 401.682 210.515 401.455 210.246C401.223 209.977 400.909 209.774 400.511 209.638C400.114 209.498 399.661 209.428 399.153 209.428C398.646 209.428 398.193 209.498 397.795 209.638C397.398 209.774 397.083 209.977 396.852 210.246C396.621 210.515 396.506 210.85 396.506 211.251C396.506 211.657 396.621 211.998 396.852 212.274C397.083 212.547 397.398 212.753 397.795 212.893C398.193 213.03 398.646 213.098 399.153 213.098C399.661 213.098 400.114 213.03 400.511 212.893C400.909 212.753 401.223 212.547 401.455 212.274C401.682 211.998 401.795 211.657 401.795 211.251ZM403.5 205.393H394.773V203.047H396.295V202.956C395.754 202.797 395.345 202.53 395.068 202.155C394.788 201.78 394.648 201.348 394.648 200.859C394.648 200.738 394.655 200.607 394.67 200.467C394.686 200.327 394.706 200.204 394.733 200.098H396.881C396.847 200.212 396.816 200.369 396.79 200.57C396.763 200.77 396.75 200.954 396.75 201.121C396.75 201.477 396.828 201.795 396.983 202.075C397.134 202.352 397.347 202.571 397.619 202.734C397.892 202.893 398.206 202.973 398.562 202.973H403.5V205.393ZM403.5 198.847H394.773V196.54H396.312V196.438C395.801 196.256 395.398 195.953 395.102 195.528C394.807 195.104 394.659 194.597 394.659 194.006C394.659 193.407 394.809 192.898 395.108 192.477C395.403 192.057 395.805 191.777 396.312 191.636V191.545C395.812 191.367 395.413 191.045 395.114 190.58C394.811 190.11 394.659 189.555 394.659 188.915C394.659 188.1 394.919 187.439 395.438 186.932C395.953 186.42 396.684 186.165 397.631 186.165H403.5V188.58H398.108C397.623 188.58 397.259 188.708 397.017 188.966C396.775 189.223 396.653 189.545 396.653 189.932C396.653 190.371 396.794 190.714 397.074 190.96C397.35 191.206 397.716 191.33 398.17 191.33H403.5V193.676H398.057C397.629 193.676 397.288 193.799 397.034 194.045C396.78 194.288 396.653 194.608 396.653 195.006C396.653 195.275 396.722 195.517 396.858 195.733C396.991 195.945 397.178 196.114 397.42 196.239C397.659 196.364 397.939 196.426 398.261 196.426H403.5V198.847Z" fill="black"/>
<rect x="428" y="330.5" width="199" height="39" transform="rotate(-90 428 330.5)" fill="#A3D2FF" stroke="#007BFF"/>
<path d="M453.5 249.989H441.864V245.398C441.864 244.519 442.021 243.769 442.335 243.148C442.646 242.523 443.087 242.047 443.659 241.722C444.227 241.392 444.896 241.227 445.665 241.227C446.437 241.227 447.102 241.394 447.659 241.727C448.212 242.061 448.636 242.544 448.932 243.176C449.227 243.805 449.375 244.566 449.375 245.46V248.534H447.398V245.858C447.398 245.388 447.333 244.998 447.205 244.688C447.076 244.377 446.883 244.146 446.625 243.994C446.367 243.839 446.047 243.761 445.665 243.761C445.278 243.761 444.953 243.839 444.688 243.994C444.422 244.146 444.222 244.379 444.085 244.693C443.945 245.004 443.875 245.396 443.875 245.869V247.528H453.5V249.989ZM448.205 243.705L453.5 240.812V243.528L448.205 246.358V243.705ZM453.67 235.697C453.67 236.595 453.489 237.368 453.125 238.016C452.758 238.66 452.239 239.156 451.568 239.504C450.894 239.853 450.097 240.027 449.176 240.027C448.278 240.027 447.491 239.853 446.812 239.504C446.134 239.156 445.606 238.665 445.227 238.033C444.848 237.396 444.659 236.65 444.659 235.794C444.659 235.218 444.752 234.682 444.938 234.186C445.119 233.686 445.394 233.25 445.761 232.879C446.129 232.504 446.591 232.213 447.148 232.004C447.701 231.796 448.348 231.692 449.091 231.692H449.756V239.061H448.256V233.97C447.907 233.97 447.598 234.046 447.33 234.197C447.061 234.349 446.85 234.559 446.699 234.828C446.544 235.093 446.466 235.402 446.466 235.754C446.466 236.122 446.551 236.447 446.722 236.732C446.888 237.012 447.114 237.232 447.398 237.391C447.678 237.55 447.991 237.631 448.335 237.635H449.761C450.193 237.635 450.566 237.555 450.881 237.396C451.195 237.233 451.438 237.004 451.608 236.709C451.778 236.413 451.864 236.063 451.864 235.658C451.864 235.389 451.826 235.143 451.75 234.919C451.674 234.696 451.561 234.504 451.409 234.345C451.258 234.186 451.072 234.065 450.852 233.982L451 231.743C451.538 231.857 452.008 232.089 452.409 232.442C452.807 232.79 453.117 233.241 453.341 233.794C453.561 234.343 453.67 234.978 453.67 235.697ZM453.5 230.067H441.864V227.607H451.472V222.618H453.5V230.067ZM441.864 213.801V211.341H449.42C450.269 211.341 451.011 211.544 451.648 211.949C452.284 212.35 452.78 212.913 453.136 213.636C453.489 214.36 453.665 215.203 453.665 216.165C453.665 217.131 453.489 217.975 453.136 218.699C452.78 219.422 452.284 219.985 451.648 220.386C451.011 220.788 450.269 220.989 449.42 220.989H441.864V218.528H449.21C449.653 218.528 450.047 218.432 450.392 218.239C450.737 218.042 451.008 217.765 451.205 217.409C451.402 217.053 451.5 216.638 451.5 216.165C451.5 215.687 451.402 215.273 451.205 214.92C451.008 214.564 450.737 214.29 450.392 214.097C450.047 213.9 449.653 213.801 449.21 213.801H441.864Z" fill="black"/>
<path d="M377.5 231H367.5" stroke="#007BFF" stroke-width="2"/>
<path d="M427.5 231H417.5" stroke="#007BFF" stroke-width="2"/>
<path d="M623.5 231L623.5 90" stroke="#007BFF" stroke-width="2"/>
<circle cx="622.5" cy="231" r="14" transform="rotate(-90 622.5 231)" fill="#A3D2FF" stroke="#007BFF" stroke-width="2"/>
<path d="M626.869 231.58H618.824V229.545H626.869V231.58ZM623.864 234.585H621.83V226.54H623.864V234.585Z" fill="black"/>
<path d="M84.9886 226.773L86.5909 229.824L88.233 226.773H90.7159L88.1875 231.136L90.7841 235.5H88.3125L86.5909 232.483L84.8977 235.5H82.3977L84.9886 231.136L82.4886 226.773H84.9886Z" fill="black"/>
<path d="M302.517 52V34.5455H309.506C310.79 34.5455 311.861 34.7358 312.719 35.1165C313.577 35.4972 314.222 36.0256 314.653 36.7017C315.085 37.3722 315.301 38.1449 315.301 39.0199C315.301 39.7017 315.165 40.3011 314.892 40.8182C314.619 41.3295 314.244 41.75 313.767 42.0795C313.295 42.4034 312.756 42.6335 312.148 42.7699V42.9403C312.813 42.9687 313.435 43.1562 314.014 43.5028C314.599 43.8494 315.074 44.3352 315.438 44.9602C315.801 45.5795 315.983 46.3182 315.983 47.1761C315.983 48.1023 315.753 48.929 315.293 49.6562C314.838 50.3778 314.165 50.9489 313.273 51.3693C312.381 51.7898 311.281 52 309.974 52H302.517ZM306.207 48.983H309.216C310.244 48.983 310.994 48.7869 311.466 48.3949C311.938 47.9972 312.173 47.4687 312.173 46.8097C312.173 46.3267 312.057 45.9006 311.824 45.5312C311.591 45.1619 311.259 44.8722 310.827 44.6619C310.401 44.4517 309.892 44.3466 309.301 44.3466H306.207V48.983ZM306.207 41.8494H308.943C309.449 41.8494 309.898 41.7614 310.29 41.5852C310.688 41.4034 311 41.1477 311.227 40.8182C311.46 40.4886 311.577 40.0938 311.577 39.6335C311.577 39.0028 311.352 38.4943 310.903 38.108C310.46 37.7216 309.83 37.5284 309.011 37.5284H306.207V41.8494ZM324.231 52.2557C322.907 52.2557 321.762 51.9744 320.796 51.4119C319.836 50.8437 319.094 50.054 318.572 49.0426C318.049 48.0256 317.788 46.8466 317.788 45.5057C317.788 44.1534 318.049 42.9716 318.572 41.9602C319.094 40.9432 319.836 40.1534 320.796 39.5909C321.762 39.0227 322.907 38.7386 324.231 38.7386C325.555 38.7386 326.697 39.0227 327.657 39.5909C328.623 40.1534 329.367 40.9432 329.89 41.9602C330.413 42.9716 330.674 44.1534 330.674 45.5057C330.674 46.8466 330.413 48.0256 329.89 49.0426C329.367 50.054 328.623 50.8437 327.657 51.4119C326.697 51.9744 325.555 52.2557 324.231 52.2557ZM324.248 49.4432C324.85 49.4432 325.353 49.2727 325.756 48.9318C326.16 48.5852 326.464 48.1136 326.668 47.517C326.879 46.9205 326.984 46.2415 326.984 45.4801C326.984 44.7188 326.879 44.0398 326.668 43.4432C326.464 42.8466 326.16 42.375 325.756 42.0284C325.353 41.6818 324.85 41.5085 324.248 41.5085C323.64 41.5085 323.129 41.6818 322.714 42.0284C322.305 42.375 321.995 42.8466 321.785 43.4432C321.58 44.0398 321.478 44.7188 321.478 45.4801C321.478 46.2415 321.58 46.9205 321.785 47.517C321.995 48.1136 322.305 48.5852 322.714 48.9318C323.129 49.2727 323.64 49.4432 324.248 49.4432ZM339.998 38.9091V41.6364H332.114V38.9091H339.998ZM333.904 35.7727H337.535V47.9773C337.535 48.3125 337.586 48.5739 337.688 48.7614C337.79 48.9432 337.933 49.071 338.114 49.1449C338.302 49.2187 338.518 49.2557 338.762 49.2557C338.933 49.2557 339.103 49.2415 339.273 49.2131C339.444 49.179 339.575 49.1534 339.665 49.1364L340.237 51.8381C340.055 51.8949 339.799 51.9602 339.469 52.0341C339.14 52.1136 338.739 52.1619 338.268 52.179C337.393 52.2131 336.626 52.0966 335.967 51.8295C335.313 51.5625 334.805 51.1477 334.441 50.5852C334.077 50.0227 333.898 49.3125 333.904 48.4545V35.7727ZM349.326 38.9091V41.6364H341.442V38.9091H349.326ZM343.232 35.7727H346.863V47.9773C346.863 48.3125 346.914 48.5739 347.016 48.7614C347.119 48.9432 347.261 49.071 347.442 49.1449C347.63 49.2187 347.846 49.2557 348.09 49.2557C348.261 49.2557 348.431 49.2415 348.602 49.2131C348.772 49.179 348.903 49.1534 348.994 49.1364L349.565 51.8381C349.383 51.8949 349.127 51.9602 348.798 52.0341C348.468 52.1136 348.067 52.1619 347.596 52.179C346.721 52.2131 345.954 52.0966 345.295 51.8295C344.641 51.5625 344.133 51.1477 343.769 50.5852C343.406 50.0227 343.227 49.3125 343.232 48.4545V35.7727ZM355.603 34.5455V52H351.972V34.5455H355.603ZM364.477 52.2557C363.131 52.2557 361.972 51.983 361 51.4375C360.034 50.8864 359.29 50.108 358.767 49.1023C358.244 48.0909 357.983 46.8949 357.983 45.5142C357.983 44.1676 358.244 42.9858 358.767 41.9688C359.29 40.9517 360.026 40.1591 360.974 39.5909C361.929 39.0227 363.048 38.7386 364.332 38.7386C365.196 38.7386 366 38.8778 366.744 39.1562C367.494 39.429 368.148 39.8409 368.705 40.392C369.267 40.9432 369.705 41.6364 370.017 42.4716C370.33 43.3011 370.486 44.2727 370.486 45.3864V46.3835H359.432V44.1335H367.068C367.068 43.6108 366.955 43.1477 366.727 42.7443C366.5 42.3409 366.185 42.0256 365.781 41.7983C365.384 41.5653 364.92 41.4489 364.392 41.4489C363.841 41.4489 363.352 41.5767 362.926 41.8324C362.506 42.0824 362.176 42.4205 361.938 42.8466C361.699 43.267 361.577 43.7358 361.571 44.2528V46.392C361.571 47.0398 361.69 47.5994 361.929 48.071C362.173 48.5426 362.517 48.9062 362.96 49.1619C363.403 49.4176 363.929 49.5455 364.537 49.5455C364.94 49.5455 365.31 49.4886 365.645 49.375C365.98 49.2614 366.267 49.0909 366.506 48.8636C366.744 48.6364 366.926 48.358 367.051 48.0284L370.409 48.25C370.239 49.0568 369.889 49.7614 369.361 50.3636C368.838 50.9602 368.162 51.4261 367.332 51.7614C366.509 52.0909 365.557 52.2557 364.477 52.2557ZM376.486 44.4318V52H372.855V38.9091H376.315V41.2188H376.469C376.759 40.4574 377.244 39.8551 377.926 39.4119C378.608 38.9631 379.435 38.7386 380.406 38.7386C381.315 38.7386 382.108 38.9375 382.784 39.3352C383.46 39.733 383.986 40.3011 384.361 41.0398C384.736 41.7727 384.923 42.6477 384.923 43.6648V52H381.293V44.3125C381.298 43.5114 381.094 42.8864 380.679 42.4375C380.264 41.983 379.693 41.7557 378.966 41.7557C378.477 41.7557 378.045 41.8608 377.67 42.071C377.301 42.2812 377.011 42.5881 376.801 42.9915C376.597 43.3892 376.491 43.8693 376.486 44.4318ZM393.751 52.2557C392.404 52.2557 391.245 51.983 390.273 51.4375C389.308 50.8864 388.563 50.108 388.04 49.1023C387.518 48.0909 387.256 46.8949 387.256 45.5142C387.256 44.1676 387.518 42.9858 388.04 41.9688C388.563 40.9517 389.299 40.1591 390.248 39.5909C391.202 39.0227 392.322 38.7386 393.606 38.7386C394.469 38.7386 395.273 38.8778 396.018 39.1562C396.768 39.429 397.421 39.8409 397.978 40.392C398.54 40.9432 398.978 41.6364 399.29 42.4716C399.603 43.3011 399.759 44.2727 399.759 45.3864V46.3835H388.705V44.1335H396.342C396.342 43.6108 396.228 43.1477 396.001 42.7443C395.773 42.3409 395.458 42.0256 395.055 41.7983C394.657 41.5653 394.194 41.4489 393.665 41.4489C393.114 41.4489 392.626 41.5767 392.2 41.8324C391.779 42.0824 391.45 42.4205 391.211 42.8466C390.972 43.267 390.85 43.7358 390.844 44.2528V46.392C390.844 47.0398 390.964 47.5994 391.202 48.071C391.447 48.5426 391.79 48.9062 392.234 49.1619C392.677 49.4176 393.202 49.5455 393.81 49.5455C394.214 49.5455 394.583 49.4886 394.918 49.375C395.254 49.2614 395.54 49.0909 395.779 48.8636C396.018 48.6364 396.2 48.358 396.325 48.0284L399.683 48.25C399.512 49.0568 399.163 49.7614 398.634 50.3636C398.112 50.9602 397.435 51.4261 396.606 51.7614C395.782 52.0909 394.83 52.2557 393.751 52.2557ZM408.043 52.2557C406.702 52.2557 405.549 51.9716 404.583 51.4034C403.623 50.8295 402.884 50.0341 402.367 49.017C401.856 48 401.6 46.8295 401.6 45.5057C401.6 44.1648 401.859 42.9886 402.376 41.9773C402.898 40.9602 403.64 40.1676 404.6 39.5994C405.56 39.0256 406.702 38.7386 408.026 38.7386C409.168 38.7386 410.168 38.946 411.026 39.3608C411.884 39.7756 412.563 40.358 413.063 41.108C413.563 41.858 413.839 42.7386 413.89 43.75H410.464C410.367 43.0966 410.112 42.571 409.697 42.1733C409.288 41.7699 408.751 41.5682 408.086 41.5682C407.523 41.5682 407.032 41.7216 406.612 42.0284C406.197 42.3295 405.873 42.7699 405.64 43.3494C405.407 43.929 405.29 44.6307 405.29 45.4545C405.29 46.2898 405.404 47 405.631 47.5852C405.864 48.1705 406.191 48.6165 406.612 48.9233C407.032 49.2301 407.523 49.3835 408.086 49.3835C408.501 49.3835 408.873 49.2983 409.202 49.1278C409.538 48.9574 409.813 48.7102 410.029 48.3864C410.251 48.0568 410.396 47.6619 410.464 47.2017H413.89C413.833 48.2017 413.56 49.0824 413.072 49.8438C412.589 50.5994 411.921 51.1903 411.069 51.6165C410.217 52.0426 409.208 52.2557 408.043 52.2557ZM419.504 48.233L419.513 43.8778H420.041L424.234 38.9091H428.402L422.768 45.4886H421.908L419.504 48.233ZM416.214 52V34.5455H419.845V52H416.214ZM424.396 52L420.544 46.2983L422.964 43.733L428.649 52H424.396ZM435.806 52V34.5455H442.795C444.079 34.5455 445.15 34.7358 446.008 35.1165C446.866 35.4972 447.511 36.0256 447.942 36.7017C448.374 37.3722 448.59 38.1449 448.59 39.0199C448.59 39.7017 448.454 40.3011 448.181 40.8182C447.908 41.3295 447.533 41.75 447.056 42.0795C446.585 42.4034 446.045 42.6335 445.437 42.7699V42.9403C446.102 42.9687 446.724 43.1562 447.303 43.5028C447.888 43.8494 448.363 44.3352 448.727 44.9602C449.09 45.5795 449.272 46.3182 449.272 47.1761C449.272 48.1023 449.042 48.929 448.582 49.6562C448.127 50.3778 447.454 50.9489 446.562 51.3693C445.67 51.7898 444.57 52 443.263 52H435.806ZM439.496 48.983H442.505C443.533 48.983 444.283 48.7869 444.755 48.3949C445.227 47.9972 445.462 47.4687 445.462 46.8097C445.462 46.3267 445.346 45.9006 445.113 45.5312C444.88 45.1619 444.548 44.8722 444.116 44.6619C443.69 44.4517 443.181 44.3466 442.59 44.3466H439.496V48.983ZM439.496 41.8494H442.232C442.738 41.8494 443.187 41.7614 443.579 41.5852C443.977 41.4034 444.289 41.1477 444.516 40.8182C444.749 40.4886 444.866 40.0938 444.866 39.6335C444.866 39.0028 444.641 38.4943 444.192 38.108C443.749 37.7216 443.119 37.5284 442.3 37.5284H439.496V41.8494ZM455.236 34.5455V52H451.605V34.5455H455.236ZM464.059 52.2557C462.735 52.2557 461.59 51.9744 460.624 51.4119C459.664 50.8437 458.923 50.054 458.4 49.0426C457.877 48.0256 457.616 46.8466 457.616 45.5057C457.616 44.1534 457.877 42.9716 458.4 41.9602C458.923 40.9432 459.664 40.1534 460.624 39.5909C461.59 39.0227 462.735 38.7386 464.059 38.7386C465.383 38.7386 466.525 39.0227 467.485 39.5909C468.451 40.1534 469.195 40.9432 469.718 41.9602C470.241 42.9716 470.502 44.1534 470.502 45.5057C470.502 46.8466 470.241 48.0256 469.718 49.0426C469.195 50.054 468.451 50.8437 467.485 51.4119C466.525 51.9744 465.383 52.2557 464.059 52.2557ZM464.076 49.4432C464.678 49.4432 465.181 49.2727 465.585 48.9318C465.988 48.5852 466.292 48.1136 466.496 47.517C466.707 46.9205 466.812 46.2415 466.812 45.4801C466.812 44.7188 466.707 44.0398 466.496 43.4432C466.292 42.8466 465.988 42.375 465.585 42.0284C465.181 41.6818 464.678 41.5085 464.076 41.5085C463.468 41.5085 462.957 41.6818 462.542 42.0284C462.133 42.375 461.823 42.8466 461.613 43.4432C461.408 44.0398 461.306 44.7188 461.306 45.4801C461.306 46.2415 461.408 46.9205 461.613 47.517C461.823 48.1136 462.133 48.5852 462.542 48.9318C462.957 49.2727 463.468 49.4432 464.076 49.4432ZM478.778 52.2557C477.437 52.2557 476.283 51.9716 475.317 51.4034C474.357 50.8295 473.619 50.0341 473.102 49.017C472.59 48 472.335 46.8295 472.335 45.5057C472.335 44.1648 472.593 42.9886 473.11 41.9773C473.633 40.9602 474.374 40.1676 475.335 39.5994C476.295 39.0256 477.437 38.7386 478.761 38.7386C479.903 38.7386 480.903 38.946 481.761 39.3608C482.619 39.7756 483.298 40.358 483.798 41.108C484.298 41.858 484.573 42.7386 484.624 43.75H481.198C481.102 43.0966 480.846 42.571 480.431 42.1733C480.022 41.7699 479.485 41.5682 478.82 41.5682C478.258 41.5682 477.766 41.7216 477.346 42.0284C476.931 42.3295 476.607 42.7699 476.374 43.3494C476.141 43.929 476.025 44.6307 476.025 45.4545C476.025 46.2898 476.138 47 476.366 47.5852C476.599 48.1705 476.925 48.6165 477.346 48.9233C477.766 49.2301 478.258 49.3835 478.82 49.3835C479.235 49.3835 479.607 49.2983 479.937 49.1278C480.272 48.9574 480.548 48.7102 480.763 48.3864C480.985 48.0568 481.13 47.6619 481.198 47.2017H484.624C484.567 48.2017 484.295 49.0824 483.806 49.8438C483.323 50.5994 482.656 51.1903 481.803 51.6165C480.951 52.0426 479.942 52.2557 478.778 52.2557ZM490.239 48.233L490.247 43.8778H490.776L494.969 38.9091H499.136L493.503 45.4886H492.642L490.239 48.233ZM486.949 52V34.5455H490.58V52H486.949ZM495.131 52L491.278 46.2983L493.699 43.733L499.384 52H495.131Z" fill="black"/>
<rect x="297.5" y="70.5" width="199" height="39" fill="#A3D2FF" stroke="#007BFF"/>
<path d="M351.136 96H347.011V84.3636H351.17C352.341 84.3636 353.348 84.5966 354.193 85.0625C355.038 85.5246 355.688 86.1894 356.142 87.0568C356.6 87.9242 356.83 88.9621 356.83 90.1705C356.83 91.3826 356.6 92.4242 356.142 93.2955C355.688 94.1667 355.034 94.8352 354.182 95.3011C353.333 95.767 352.318 96 351.136 96ZM349.472 93.892H351.034C351.761 93.892 352.373 93.7633 352.869 93.5057C353.369 93.2443 353.744 92.8409 353.994 92.2955C354.248 91.7462 354.375 91.0379 354.375 90.1705C354.375 89.3106 354.248 88.608 353.994 88.0625C353.744 87.517 353.371 87.1155 352.875 86.858C352.379 86.6004 351.767 86.4716 351.04 86.4716H349.472V93.892ZM362.55 96.1705C361.667 96.1705 360.904 95.983 360.26 95.608C359.62 95.2292 359.125 94.7027 358.777 94.0284C358.429 93.3504 358.254 92.5644 358.254 91.6705C358.254 90.7689 358.429 89.9811 358.777 89.3068C359.125 88.6288 359.62 88.1023 360.26 87.7273C360.904 87.3485 361.667 87.1591 362.55 87.1591C363.432 87.1591 364.194 87.3485 364.834 87.7273C365.478 88.1023 365.974 88.6288 366.322 89.3068C366.671 89.9811 366.845 90.7689 366.845 91.6705C366.845 92.5644 366.671 93.3504 366.322 94.0284C365.974 94.7027 365.478 95.2292 364.834 95.608C364.194 95.983 363.432 96.1705 362.55 96.1705ZM362.561 94.2955C362.963 94.2955 363.298 94.1818 363.567 93.9545C363.836 93.7235 364.038 93.4091 364.175 93.0114C364.315 92.6136 364.385 92.161 364.385 91.6534C364.385 91.1458 364.315 90.6932 364.175 90.2955C364.038 89.8977 363.836 89.5833 363.567 89.3523C363.298 89.1212 362.963 89.0057 362.561 89.0057C362.156 89.0057 361.815 89.1212 361.538 89.3523C361.266 89.5833 361.059 89.8977 360.919 90.2955C360.783 90.6932 360.714 91.1458 360.714 91.6534C360.714 92.161 360.783 92.6136 360.919 93.0114C361.059 93.4091 361.266 93.7235 361.538 93.9545C361.815 94.1818 362.156 94.2955 362.561 94.2955ZM369.922 96L367.547 87.2727H369.996L371.348 93.1364H371.428L372.837 87.2727H375.24L376.672 93.1023H376.746L378.075 87.2727H380.518L378.149 96H375.587L374.087 90.5114H373.979L372.479 96H369.922ZM384.23 90.9545V96H381.81V87.2727H384.116V88.8125H384.219C384.412 88.3049 384.736 87.9034 385.19 87.608C385.645 87.3087 386.196 87.1591 386.844 87.1591C387.45 87.1591 387.978 87.2917 388.429 87.5568C388.88 87.822 389.23 88.2008 389.48 88.6932C389.73 89.1818 389.855 89.7652 389.855 90.4432V96H387.435V90.875C387.438 90.3409 387.302 89.9242 387.026 89.625C386.749 89.322 386.368 89.1705 385.884 89.1705C385.558 89.1705 385.27 89.2405 385.02 89.3807C384.774 89.5208 384.58 89.7254 384.44 89.9943C384.304 90.2595 384.234 90.5795 384.23 90.9545ZM399.024 89.7614L396.808 89.8977C396.77 89.7083 396.689 89.5379 396.564 89.3864C396.439 89.2311 396.274 89.108 396.07 89.017C395.869 88.9223 395.628 88.875 395.348 88.875C394.973 88.875 394.657 88.9545 394.399 89.1136C394.142 89.2689 394.013 89.4773 394.013 89.7386C394.013 89.947 394.096 90.1231 394.263 90.267C394.429 90.411 394.715 90.5265 395.121 90.6136L396.7 90.9318C397.549 91.1061 398.181 91.3864 398.598 91.7727C399.015 92.1591 399.223 92.6667 399.223 93.2955C399.223 93.8674 399.054 94.3693 398.717 94.8011C398.384 95.233 397.926 95.5701 397.342 95.8125C396.763 96.0511 396.094 96.1705 395.337 96.1705C394.181 96.1705 393.261 95.9299 392.575 95.4489C391.893 94.964 391.494 94.3049 391.376 93.4716L393.757 93.3466C393.829 93.6989 394.003 93.9678 394.28 94.1534C394.556 94.3352 394.911 94.4261 395.342 94.4261C395.767 94.4261 396.107 94.3447 396.365 94.1818C396.626 94.0152 396.759 93.8011 396.763 93.5398C396.759 93.3201 396.666 93.1402 396.484 93C396.303 92.8561 396.022 92.7462 395.643 92.6705L394.132 92.3693C393.28 92.1989 392.645 91.9034 392.229 91.483C391.816 91.0625 391.609 90.5265 391.609 89.875C391.609 89.3144 391.761 88.8314 392.064 88.4261C392.371 88.0208 392.801 87.7083 393.354 87.4886C393.911 87.2689 394.562 87.1591 395.308 87.1591C396.411 87.1591 397.278 87.392 397.911 87.858C398.547 88.3239 398.918 88.9583 399.024 89.7614ZM403.236 96.1648C402.679 96.1648 402.183 96.0682 401.747 95.875C401.312 95.678 400.967 95.3883 400.713 95.0057C400.463 94.6193 400.338 94.1383 400.338 93.5625C400.338 93.0777 400.427 92.6705 400.605 92.3409C400.783 92.0114 401.026 91.7462 401.332 91.5455C401.639 91.3447 401.988 91.1932 402.378 91.0909C402.772 90.9886 403.185 90.9167 403.616 90.875C404.124 90.822 404.533 90.7727 404.844 90.7273C405.154 90.678 405.38 90.6061 405.52 90.5114C405.66 90.4167 405.73 90.2765 405.73 90.0909V90.0568C405.73 89.697 405.616 89.4186 405.389 89.2216C405.166 89.0246 404.848 88.9261 404.435 88.9261C403.999 88.9261 403.652 89.0227 403.395 89.2159C403.137 89.4053 402.967 89.6439 402.884 89.9318L400.645 89.75C400.759 89.2197 400.982 88.7614 401.315 88.375C401.649 87.9848 402.079 87.6856 402.605 87.4773C403.135 87.2652 403.749 87.1591 404.446 87.1591C404.931 87.1591 405.395 87.2159 405.838 87.3295C406.285 87.4432 406.681 87.6193 407.026 87.858C407.374 88.0966 407.649 88.4034 407.849 88.7784C408.05 89.1496 408.151 89.5947 408.151 90.1136V96H405.855V94.7898H405.787C405.647 95.0625 405.459 95.303 405.224 95.5114C404.99 95.7159 404.707 95.8769 404.378 95.9943C404.048 96.108 403.668 96.1648 403.236 96.1648ZM403.929 94.4943C404.285 94.4943 404.599 94.4242 404.872 94.2841C405.145 94.1402 405.359 93.947 405.514 93.7045C405.67 93.4621 405.747 93.1875 405.747 92.8807V91.9545C405.671 92.0038 405.567 92.0492 405.435 92.0909C405.306 92.1288 405.16 92.1648 404.997 92.1989C404.834 92.2292 404.671 92.2576 404.509 92.2841C404.346 92.3068 404.198 92.3277 404.065 92.3466C403.781 92.3883 403.533 92.4545 403.321 92.5455C403.109 92.6364 402.944 92.7595 402.827 92.9148C402.709 93.0663 402.651 93.2557 402.651 93.483C402.651 93.8125 402.77 94.0644 403.009 94.2386C403.251 94.4091 403.558 94.4943 403.929 94.4943ZM410.028 96V87.2727H412.335V88.8125H412.438C412.619 88.3011 412.922 87.8977 413.347 87.6023C413.771 87.3068 414.278 87.1591 414.869 87.1591C415.468 87.1591 415.977 87.3087 416.398 87.608C416.818 87.9034 417.098 88.3049 417.239 88.8125H417.33C417.508 88.3125 417.83 87.9129 418.295 87.6136C418.765 87.3106 419.32 87.1591 419.96 87.1591C420.775 87.1591 421.436 87.4186 421.943 87.9375C422.455 88.4527 422.71 89.1837 422.71 90.1307V96H420.295V90.608C420.295 90.1231 420.167 89.7595 419.909 89.517C419.652 89.2746 419.33 89.1534 418.943 89.1534C418.504 89.1534 418.161 89.2936 417.915 89.5739C417.669 89.8504 417.545 90.2159 417.545 90.6705V96H415.199V90.5568C415.199 90.1288 415.076 89.7879 414.83 89.5341C414.587 89.2803 414.267 89.1534 413.869 89.1534C413.6 89.1534 413.358 89.2216 413.142 89.358C412.93 89.4905 412.761 89.678 412.636 89.9205C412.511 90.1591 412.449 90.4394 412.449 90.7614V96H410.028ZM424.622 99.2727V87.2727H427.009V88.7386H427.116C427.223 88.5038 427.376 88.2652 427.577 88.0227C427.781 87.7765 428.046 87.572 428.372 87.4091C428.702 87.2424 429.111 87.1591 429.599 87.1591C430.236 87.1591 430.823 87.3258 431.361 87.6591C431.899 87.9886 432.329 88.4867 432.651 89.1534C432.973 89.8163 433.134 90.6477 433.134 91.6477C433.134 92.6212 432.976 93.4432 432.662 94.1136C432.351 94.7803 431.927 95.286 431.389 95.6307C430.855 95.9716 430.257 96.142 429.594 96.142C429.124 96.142 428.724 96.0644 428.395 95.9091C428.069 95.7538 427.802 95.5587 427.594 95.3239C427.385 95.0852 427.226 94.8447 427.116 94.6023H427.043V99.2727H424.622ZM426.991 91.6364C426.991 92.1553 427.063 92.608 427.207 92.9943C427.351 93.3807 427.56 93.6818 427.832 93.8977C428.105 94.1098 428.437 94.2159 428.827 94.2159C429.221 94.2159 429.554 94.108 429.827 93.892C430.099 93.6723 430.306 93.3693 430.446 92.983C430.59 92.5928 430.662 92.1439 430.662 91.6364C430.662 91.1326 430.592 90.6894 430.452 90.3068C430.312 89.9242 430.105 89.625 429.832 89.4091C429.56 89.1932 429.224 89.0852 428.827 89.0852C428.433 89.0852 428.099 89.1894 427.827 89.3977C427.558 89.6061 427.351 89.9015 427.207 90.2841C427.063 90.6667 426.991 91.1174 426.991 91.6364ZM437.168 84.3636V96H434.747V84.3636H437.168ZM443.084 96.1705C442.186 96.1705 441.413 95.9886 440.766 95.625C440.122 95.2576 439.625 94.7386 439.277 94.0682C438.929 93.3939 438.754 92.5966 438.754 91.6761C438.754 90.7784 438.929 89.9905 439.277 89.3125C439.625 88.6345 440.116 88.1061 440.749 87.7273C441.385 87.3485 442.131 87.1591 442.987 87.1591C443.563 87.1591 444.099 87.2519 444.595 87.4375C445.095 87.6193 445.531 87.8939 445.902 88.2614C446.277 88.6288 446.569 89.0909 446.777 89.6477C446.985 90.2008 447.089 90.8485 447.089 91.5909V92.2557H439.72V90.7557H444.811C444.811 90.4072 444.735 90.0985 444.584 89.8295C444.432 89.5606 444.222 89.3504 443.953 89.1989C443.688 89.0436 443.379 88.9659 443.027 88.9659C442.66 88.9659 442.334 89.0511 442.05 89.2216C441.769 89.3883 441.55 89.6136 441.391 89.8977C441.232 90.178 441.15 90.4905 441.146 90.8352V92.2614C441.146 92.6932 441.226 93.0663 441.385 93.3807C441.548 93.6951 441.777 93.9375 442.072 94.108C442.368 94.2784 442.718 94.3636 443.124 94.3636C443.393 94.3636 443.639 94.3258 443.862 94.25C444.086 94.1742 444.277 94.0606 444.436 93.9091C444.595 93.7576 444.716 93.572 444.8 93.3523L447.038 93.5C446.925 94.0379 446.692 94.5076 446.339 94.9091C445.991 95.3068 445.54 95.6174 444.987 95.8409C444.438 96.0606 443.804 96.1705 443.084 96.1705Z" fill="black"/>
</svg>
